<svg xmlns="http://www.w3.org/2000/svg" viewBox="0 0 135.467 67.733" height="256" width="512"><g transform="translate(-24.228 -167.736)" id="layer1"><g transform="translate(13.92 134.426) scale(.41988)" id="g177" stroke-width="2.382"><g transform="translate(204.758 30.843) scale(.75961)" id="g545"><path d="M103.085 240.356c-9.642-1.248-16.913-4.472-22.213-9.852-1.172-1.19-2.508-2.68-2.97-3.312-.82-1.124-.863-1.145-2-.974-1.78.267-9.773.198-11.854-.103-12.373-1.787-20.9-6.979-26.41-16.079-2.241-3.701-4.385-9.081-5.359-13.445-.667-2.995-.794-7.894-.264-10.273.595-2.678 1.824-5.061 3.402-6.601l1.295-1.263-1.545-1.653c-5.48-5.858-9.22-13.977-10.435-22.646-.707-5.045.686-10.628 3.322-13.32 1.124-1.146 3.757-2.671 6.325-3.663 3.212-1.24 10.694-3.328 15.382-4.29l4.233-.87-.012-1.18c-.007-.65-.098-4.95-.202-9.556-.116-5.141-.092-8.63.062-9.036.155-.407.589-.77 1.128-.943 1.568-.504 11.33-2.37 16.751-3.202 2.91-.447 5.679-.875 6.152-.951.841-.136.86-.168.862-1.516.007-3.75.293-17.112.428-19.982.142-3.006.198-3.279.722-3.504.623-.27 11.218-1.64 16.045-2.075 7.082-.64 10.094-.805 12.965-.712 13.79.447 42.106 2.406 44.516 3.08.61.17 1.01.45 1.039.728.025.248.055 12.436.066 27.085.01 14.648.092 26.707.181 26.796.22.22 5.396-1.495 7.07-2.343 1.525-.773 3.727-2.638 5.003-4.24.955-1.197 1.043-1.471.476-1.471-1.159 0-3.556-1.249-4.948-2.577-2.954-2.817-4.271-6.684-4.26-12.505.01-5.356.3-5.892 2.902-5.352 3.393.704 7.626 3.516 9.467 6.29l.998 1.504.757-1.31c1.543-2.674 5.19-5.435 8.834-6.689 2.153-.74 2.878-.696 3.291.2.738 1.598 1.067 3.209 1.07 5.236.005 3.596-1.133 6.745-3.591 9.94-1.063 1.38-1.816 2.104-4.17 4.007l-.75.607.835 5.945c1.763 12.537 2.299 21.11 1.596 25.528-.878 5.52-2.655 10.061-5.61 14.336-1.335 1.93-1.343 1.955-1.21 3.61.074.916.043 2.254-.068 2.972-.11.719-.176 1.335-.145 1.37.03.034.762-.198 1.625-.517 3.1-1.143 8.258-.68 11.755 1.055 1.846.915 1.928 1.387.68 3.912-1.16 2.346-3.653 4.945-5.886 6.135-2.243 1.196-5.871 2.184-8.019 2.184-1.779 0-1.795.007-2.877 1.18-.599.65-1.47 1.811-1.938 2.58-1.391 2.29-7.302 11-9.272 13.663-3.371 4.556-10.952 12.65-14.9 15.909-4.697 3.875-11.756 7.733-17.716 9.681-7.057 2.307-16.177 3.304-22.61 2.472zm22.665-30.046c1.878-.886 3.66-2.903 4.011-4.54.639-2.977-1.222-6.171-4.17-7.158-1.567-.525-1.796-.381-.89.558 2.576 2.67 1.414 6.736-2.445 8.563-2.16 1.023-4.122.84-5.66-.526l-.632-.562.182.755c.282 1.176.928 1.987 2.152 2.704 2.166 1.27 5.03 1.35 7.452.206zm33.469-20.22c2.205-.443 2.17-.406 1.35-1.434-.408-.51-.81-.929-.895-.929-.177 0-4.182 2.263-4.412 2.493-.259.258 2.473.17 3.957-.13zM146.17 166.44c1.594-.562 3.256-1.791 4.13-3.052.88-1.27 1.189-3.568.685-5.094-.655-1.985-3.259-4.146-5.014-4.162-.606-.006-.596.028.303 1.023 1.576 1.744 1.608 3.829.093 6.027-1.22 1.77-3.248 2.856-5.344 2.862-1.358.003-1.76-.112-2.582-.737-.906-.69-.972-.705-.972-.208 0 1.083 2.076 2.905 3.967 3.48 1.119.34 3.58.268 4.734-.14z" id="path189" fill="#cee0fc"/><path d="M104 240.083c-6.796-.594-13.676-2.868-18.52-6.121-2.876-1.93-5.917-4.917-8-7.854-.046-.064-3.086-.13-6.757-.144-6.174-.026-6.913-.08-9.85-.726-9.068-1.992-15.077-5.332-19.805-11.01-3.086-3.705-5.095-7.296-6.962-12.446-1.973-5.441-2.677-11.357-1.816-15.273.618-2.813 2.003-5.398 3.674-6.86l1.335-1.167-1.988-2.058c-3.238-3.352-5.578-7.066-7.466-11.848-3.895-9.868-3.93-17.562-.103-22.984.737-1.044 3.615-2.855 6.292-3.96 3.064-1.264 10.986-3.49 16.037-4.507l4.187-.843-.013-1.58c-.008-.87-.067-5.356-.132-9.971-.103-7.221-.064-8.444.278-8.768.587-.557 9.913-2.452 18.388-3.737 2.474-.375 4.874-.741 5.333-.814.458-.073.889-.278.956-.456.068-.178.138-4.372.156-9.32.019-4.947.11-10.34.205-11.982.191-3.354.162-3.309 2.346-3.597 11.841-1.559 22.649-2.56 25.797-2.39 1.091.059 5.2.23 9.128.382 10.314.398 32.496 1.958 36.162 2.544.563.09 1.106.297 1.207.46.101.163.188 12.4.193 27.195.005 14.794.09 26.98.19 27.08.293.294 4.126-.917 6.739-2.13 1.385-.642 2.96-1.618 3.68-2.277 1.308-1.2 3.29-3.562 3.29-3.921 0-.114-.482-.285-1.072-.379-2.738-.438-5.4-2.551-6.862-5.447-1.373-2.72-1.889-5.203-1.896-9.133-.01-5.182.31-5.788 2.736-5.182 3.489.871 7.915 4.003 9.404 6.654.403.718.807 1.305.897 1.305.09 0 .626-.792 1.19-1.762a12.177 12.177 0 0 1 2.614-3.085c2.032-1.695 5.972-3.622 7.556-3.696l1.176-.055.615 1.852c.52 1.567.597 2.239.498 4.366-.138 2.982-.723 4.806-2.407 7.508-1.113 1.785-3.563 4.37-5.32 5.613l-.783.553.723 5.135c1.618 11.493 1.882 14.39 1.886 20.746.004 5.97-.012 6.143-.813 9.14-1.086 4.059-2.44 7.134-4.495 10.208l-1.694 2.532-.066 3.42c-.057 2.983-.014 3.397.339 3.247 3.207-1.363 5.272-1.615 8.537-1.04 2.708.478 5.69 1.628 5.896 2.273.187.592-.737 2.914-1.739 4.37-.901 1.31-3.17 3.35-4.664 4.191-2.285 1.289-5.88 2.272-8.3 2.272-1.574 0-1.704.05-2.613 1.006-.526.553-1.421 1.714-1.99 2.58-9.405 14.326-11.031 16.462-18.225 23.931-4.303 4.467-6.393 6.288-9.835 8.57-4.637 3.076-8.588 5.071-13.229 6.682-2.749.954-7.616 2.122-10.319 2.475-2.992.392-8.788.505-11.906.233zm12.7-3.002c4.202-.667 12.568-3.22 12.568-3.835 0-.1-1.065-.322-2.366-.495-2.835-.377-6.7-1.597-8.728-2.753-2.94-1.676-5.184-4.83-6.263-8.801-.559-2.06-.81-9.04-.396-10.976.166-.773.249-1.457.184-1.522-.064-.064-.953.371-1.975.968-2.975 1.737-7.454 3.594-11.463 4.753-9.184 2.653-16.777 2.699-23.077.139-.864-.351-1.6-.638-1.635-.638-.212 0 .64 2.325 1.62 4.424 2.883 6.175 7.123 11.049 12.256 14.089 3.82 2.262 9.94 4.22 15.385 4.922 3.431.443 10.21.308 13.89-.275zm-41.546-13.888c.086-.14-.315-1.192-.892-2.338-3.322-6.607-4.963-15.11-3.892-20.163.232-1.092.809-2.759 1.283-3.705.474-.945.895-1.788.935-1.873.04-.085-1.406.58-3.215 1.475-3.701 1.834-10.027 4.032-14.188 4.93-2.312.499-3.601.6-7.673.607-5.274.008-6.831-.234-10.233-1.595-.94-.376-1.774-.621-1.85-.544-.401.4 2.506 6.633 4.383 9.396 2.256 3.322 5.437 6.434 8.633 8.444 4.108 2.583 10.473 4.702 16 5.326 2.816.318 10.519.347 10.709.04zm50.477-12.518c2.97-1.366 4.516-3.45 4.54-6.119.03-3.568-3.177-6.778-6.46-6.466l-.925.088.973.605c1.084.674 2.07 2.417 2.07 3.66 0 1.17-1.214 3.394-2.305 4.226-2.545 1.941-5.944 1.852-7.15-.189-.623-1.055-.958-.951-.742.23.722 3.942 5.73 5.927 9.999 3.965zm11.805-17.798c3.039-.439 7.524-1.584 10.485-2.677 2.199-.812 4.63-1.983 4.63-2.23 0-.097-1.249-.187-2.776-.2-6.898-.056-12.19-2.728-14.415-7.277-1.598-3.266-1.958-5.288-1.975-11.088-.01-2.874-.087-5.226-.174-5.226s-1.139.584-2.338 1.297c-2.44 1.452-7.66 3.61-11.262 4.658-4.331 1.26-7.05 1.729-10.994 1.896-4.552.193-7.294-.138-10.558-1.274-3.519-1.226-3.274-1.188-3.062-.464.45 1.534 2.602 6.026 3.892 8.12 1.823 2.963 5.969 7.206 8.815 9.025 4.05 2.587 9.982 4.672 15.478 5.44 3.545.496 10.823.496 14.254 0zm22.524-2.601c.856-.2 1.479-.495 1.514-.717.032-.207-.35-.838-.85-1.402l-.91-1.026-1.267.793a64.59 64.59 0 0 1-2.654 1.555c-.764.419-1.39.85-1.39.96 0 .322 3.977.205 5.557-.163zm-58.918-.598c4.62-.673 4.52-.542 2.132-2.806-2.324-2.203-4.325-4.64-5.746-6.999-2.334-3.874-4.452-9.26-5.372-13.663-.249-1.19-.482-2.205-.52-2.255-.037-.05-1.653.526-3.591 1.281-3.993 1.556-9.39 3.016-12.67 3.428-5.414.678-10.936.147-14.887-1.434-.99-.396-1.87-.652-1.953-.569-.434.435 3.2 7.824 5.092 10.35 2.733 3.653 6.474 6.857 10.178 8.718 3.877 1.949 8.515 3.39 12.833 3.986 3.565.494 10.99.474 14.504-.037zm-34.216-5.642c0-.138-.159-.347-.353-.463-.682-.41-3.61-3.836-4.777-5.591-2.674-4.023-5.205-10.123-6.22-14.993-.356-1.712-.597-2.357-.857-2.292-.198.049-1.938.494-3.867.99-7.284 1.869-13.575 1.932-18.983.191-1.164-.375-2.444-.847-2.844-1.049-.975-.492-.947-.27.342 2.747 3.078 7.205 7.02 11.97 12.82 15.504 3.545 2.158 9.619 4.15 14.685 4.816 3.042.4 10.054.498 10.054.14zm80.169-17.626c4.002-1.855 5.614-5.603 3.88-9.024-.87-1.718-2.21-2.873-3.924-3.382-2.458-.73-3.108-.453-1.564.666 2.361 1.71 2.366 4.808.01 7.164-.939.938-1.636 1.366-2.762 1.693-2.115.615-3.171.362-4.57-1.096-1.12-1.168-1.124-1.17-1.118-.44.008.98.828 2.708 1.642 3.457 1.851 1.703 5.826 2.158 8.406.962z" id="path187" fill="#70a8fb"/><path d="M103.339 239.943c-10.6-1.592-17.868-4.919-22.811-10.44-.963-1.076-2.148-2.396-2.633-2.933l-.882-.976-2.514.258c-5.53.567-13.305-.332-18.918-2.189-6.352-2.1-10.82-5.135-14.932-10.139-1.882-2.29-2.618-3.455-4.24-6.706-2.973-5.957-4.843-13.581-4.378-17.848.48-4.41 2.19-8.18 4.298-9.483.475-.294.864-.673.863-.843 0-.17-.744-1.098-1.653-2.063-3.504-3.714-6.305-8.404-8.278-13.857-2.012-5.56-2.718-11.44-1.846-15.373 1.306-5.89 4.173-8.356 12.836-11.04 4.071-1.262 10.375-2.86 13.23-3.355.945-.164 1.993-.354 2.328-.421l.609-.123-.186-9.98c-.167-8.957-.143-10.016.236-10.33.74-.614 8.817-2.278 17.65-3.636 3.274-.503 6.22-.975 6.548-1.049.594-.133.596-.146.596-5.618.001-9.048.32-18.56.637-18.982.329-.438 3.037-.868 11.533-1.833 10.015-1.137 14.732-1.338 22.832-.972 15.722.71 38.359 2.412 39.387 2.962.534.286.537.415.478 22.16-.032 12.029-.043 24.223-.024 27.097l.034 5.225h.647c.91 0 4.721-1.236 6.716-2.178 2.08-.982 4.312-2.817 5.848-4.81 1.255-1.627 1.205-1.995-.27-2.004-1.106-.007-3.804-1.51-4.962-2.767-2.485-2.696-3.574-6.105-3.597-11.26-.018-3.904.19-5.426.775-5.65.619-.238 3.26.569 5.197 1.587 2.241 1.177 5.011 3.682 5.98 5.406.402.716.814 1.303.914 1.303.1 0 .567-.719 1.035-1.598 1.54-2.89 5.504-5.806 9.486-6.977 1.72-.506 1.847-.421 2.548 1.696.55 1.663.609 4.615.136 6.886-.654 3.146-3.386 7.305-6.187 9.42a93.707 93.707 0 0 0-1.859 1.427c-.117.101.154 2.711.603 5.8 1.784 12.268 2.345 19.471 1.878 24.092-.65 6.427-2.334 11.081-5.9 16.31l-1.288 1.89.163 1.947c.09 1.07.047 2.54-.096 3.264-.143.726-.211 1.397-.153 1.492.06.095.853-.13 1.764-.501 3.067-1.25 7.407-1.073 11.181.454 1.792.725 1.851.779 1.824 1.639-.077 2.372-3.246 6.329-6.395 7.984-2.221 1.167-4.957 1.94-7.72 2.18-2.098.184-2.132.199-3.28 1.427-.638.682-1.678 2.066-2.31 3.075-1.744 2.782-7.583 11.416-8.935 13.211-3.353 4.453-11.183 12.805-14.562 15.532-8.044 6.493-17.96 10.749-27.895 11.974-2.95.363-10.285.507-12.086.236zm13.89-2.755c4.17-.69 11.385-2.887 12.568-3.827.218-.174 1.392-.809 2.608-1.41 2.59-1.282 6.738-3.955 9.401-6.059 2.441-1.928 8.819-8.303 11.182-11.177 2.883-3.508 8.758-11.56 12.448-17.066.878-1.31 2.182-2.927 2.897-3.595 1.283-1.197 1.33-1.215 3.541-1.378 2.926-.216 4.968-.76 7.378-1.967 3.123-1.564 6.99-5.844 6.012-6.656-.704-.584-4.53-1.367-6.784-1.389-2.767-.026-4.075.305-6.572 1.664-1.068.582-2.006.994-2.084.917-.077-.078.066-.653.32-1.277.475-1.17.898-5.766.531-5.766-.113 0-1.534 1.28-3.157 2.844-1.623 1.565-3.625 3.32-4.449 3.903-.823.582-1.5 1.237-1.506 1.455-.005.218.287.915.649 1.549.362.633.658 1.312.658 1.51 0 .613-2.184 1.674-4.381 2.129-1.56.323-2.748.39-4.617.262-2.325-.16-2.644-.12-4.233.525-2.824 1.147-8.518 2.72-11.344 3.133-3.251.476-7.982.651-11.473.425-6.264-.405-11.64-1.747-16.207-4.045l-2.117-1.065-2.91.693c-1.601.381-3.923.832-5.16 1.001-3.297.453-11.517.356-14.42-.17-4.346-.788-4.868-.787-6.894.009-3.5 1.374-4.643 2.34-6.045 5.107-1.577 3.113-2.014 7.67-1.117 11.665.63 2.803.874 3.17 2.579 3.882 3.574 1.492 5.578 1.834 10.684 1.821 5.225-.012 7.583-.337 12.306-1.694a61.965 61.965 0 0 0 11.435-4.578c2.982-1.556 3.616-1.729 3.297-.896-.224.583-4.975 3.16-8.324 4.516-11.38 4.605-21.457 5.299-29.107 2.003-.769-.331-1.454-.546-1.522-.477-.416.416 2.23 6.289 4.176 9.27 3.553 5.443 7.951 9.122 13.834 11.57 7.698 3.204 16.858 4.136 25.92 2.639zm3.134-24.601c-3.189-.63-5.517-3.095-5.83-6.17-.341-3.362 2.501-7.5 6.04-8.796.635-.233 1.988-.44 3.006-.462 1.576-.033 2.084.078 3.404.747 2.468 1.25 4.024 3.484 4.306 6.181.4 3.817-2.334 7.243-6.683 8.376-1.666.434-2.547.46-4.243.124zm5.528-1.817c1.608-.78 3.285-2.412 3.923-3.816 1.827-4.024-1.678-9.173-6.244-9.173-1.166 0-1.164.331.007 1.022 3.6 2.125 2.11 7.595-2.43 8.924-2.306.675-4.006-.016-5.291-2.147-.277-.46-.317-.385-.33.612-.03 2.19 1.578 4.184 4.011 4.972 1.693.548 4.81.355 6.354-.394zm-50.61 12.688c.322-.203.159-.724-.974-3.105-2.888-6.07-3.862-9.934-3.89-15.428-.012-2.551.106-4.28.354-5.16.41-1.455 1.395-3.565 2.193-4.696.6-.851.225-.959-.805-.231-3.582 2.53-13.77 6.097-19.706 6.897-2.657.359-8.097.36-10.118.001-1.892-.335-4.641-1.197-6.011-1.885-.55-.276-1.113-.433-1.25-.349-.635.392 2.798 7.533 5.323 11.073 4.866 6.824 13.522 11.489 23.651 12.747 3.149.391 10.686.482 11.234.136zm-25.16-22.772c6.737-.597 13.032-2.478 19.973-5.969 1.87-.94 3.657-1.677 3.97-1.638.565.072 4.665-1.882 4.667-2.224 0-.099-.683-.428-1.52-.732-1.482-.539-2.205-.88-5.49-2.593l-1.588-.827-2.91.2c-6.504.448-13.068-.305-18.52-2.123-3.198-1.066-7.109-2.967-9.159-4.453-.61-.44-1.268-.802-1.465-.802-.604 0-2.298 1.908-3.172 3.575-1.734 3.305-2.138 8.03-1.063 12.43.557 2.283.623 2.402 1.634 2.96 1.544.85 5.504 1.94 7.933 2.183 3.06.305 3.394.306 6.71.013zm88.622-7.78c5.025-.938 8.79-2.144 12.882-4.125 12.071-5.845 20.835-14.657 24.071-24.205 2.313-6.822 2.583-17.274.745-28.84-.231-1.455-.427-4.088-.436-5.851l-.016-3.206 2.28-2.444c3.693-3.957 5.537-8.39 5.133-12.338-.303-2.954-.44-3.01-3.478-1.439-3.979 2.059-6.379 4.585-7.427 7.816-.236.728-.59 1.493-.785 1.7-.306.326-.377.307-.51-.132-.893-2.965-4.037-6.59-7.274-8.387-1.838-1.02-4.09-1.747-4.413-1.424-.374.374-.059 5.745.454 7.75 1.202 4.701 3.292 7.506 6.828 9.164l2.208 1.035-.172.968c-.21 1.183-1.705 3.432-3.357 5.053-1.817 1.78-3.892 2.915-7.6 4.155-2.413.807-3.364 1.247-3.502 1.622-.105.283-.389.59-.63.684-.647.248-17.289 3.847-27.122 5.865-1.673.343-8.204 1.821-14.513 3.284-6.31 1.463-11.566 2.6-11.682 2.529-.23-.142-4.177-.925-4.662-.925-.584 0-2.164 3.529-2.591 5.783-.542 2.865-.524 4.397.087 7.313.757 3.61.79 3.664 2.802 4.47 3.362 1.345 5.981 1.807 10.318 1.82 2.183.006 4.922-.135 6.086-.315 5.487-.847 12.172-3.065 17.269-5.732 3.188-1.667 4.03-1.966 4.03-1.428 0 .41-3.463 2.563-6.018 3.744-2.95 1.362-9.253 3.452-12.768 4.233-2.414.536-3.471.615-8.07.606-4.996-.01-5.421-.051-7.625-.732-1.284-.397-2.814-.966-3.4-1.264-.585-.3-1.138-.47-1.228-.38-.447.447 2.287 6.46 4.452 9.795 1.852 2.852 6.402 7.289 9.159 8.931 4.198 2.501 9.733 4.347 15.311 5.105 3.409.463 12.094.316 15.164-.258zm2.203-24.785c-2.131-.643-3.892-2.273-4.677-4.33-1.294-3.387 1.035-8.241 4.851-10.116 1.294-.635 1.83-.74 3.758-.74 1.87 0 2.465.11 3.527.652a7.731 7.731 0 0 1 4.252 6.888c.02 3.108-1.59 5.417-4.868 6.98-1.42.677-2.09.83-3.837.877-1.164.032-2.517-.063-3.006-.21zm6.1-1.624c2.79-1.282 4.366-3.282 4.634-5.876.133-1.29.048-1.677-.704-3.204-1.292-2.624-3.455-3.97-6.07-3.775l-1.163.086 1.022.662c1.448.937 2.23 2.207 2.23 3.621 0 2.95-2.954 5.639-6.195 5.639-1.315 0-2.367-.59-3.063-1.715-1.217-1.97-1.318.302-.108 2.42 1.56 2.728 5.962 3.73 9.417 2.142zm13.244 23.838c.837-.163 1.522-.397 1.522-.52 0-.415-1.716-2.584-2.056-2.6-.185-.01-.78.263-1.323.605-.543.342-1.731 1.01-2.64 1.482-1.72.894-1.975 1.202-1.191 1.434.628.186 3.824-.04 5.688-.401zm-58.936-.448a28.88 28.88 0 0 1 2.25-.42c2.15-.302 2.152-.463.038-2.42-2.25-2.084-4.586-4.897-5.913-7.125-2.526-4.238-4.56-9.328-5.39-13.494-.262-1.31-.562-2.484-.668-2.609-.105-.125-1.363.252-2.795.84-3.036 1.244-7.74 2.7-10.937 3.386-1.73.371-3.441.484-7.409.491-5.661.01-7.232-.25-10.553-1.744-.93-.419-1.734-.76-1.786-.76-.544 0 .635 3.137 2.587 6.888 3.395 6.523 8.51 11.264 15.194 14.085 3.399 1.435 7.388 2.512 11.095 2.997 2.954.386 12.519.31 14.287-.115zm-34.263-5.676c0-.187-.61-.931-1.356-1.653-2.854-2.764-5.631-7.045-7.46-11.5-1.546-3.761-2.826-8.121-2.826-9.62 0-1.114-.428-1.201-2.598-.53-4.795 1.481-7.007 1.806-12.35 1.81-5.446.006-7.46-.336-10.881-1.85-.827-.365-1.568-.6-1.647-.522-.381.382 2.66 6.95 4.598 9.928 1.763 2.71 5.572 6.474 8.436 8.336 4.173 2.715 10.245 4.812 16.03 5.537 3.833.48 10.054.52 10.054.064zm9.679-17.26c3.062-.48 7.943-1.884 11.642-3.349l2.888-1.143.076-2.441c.088-2.828-.009-3.08-2.181-5.699-1.681-2.026-4.853-4.652-6.826-5.652-1.266-.642-15.322-4.33-16.509-4.33-1.054-.003-5.05 1.862-6.028 2.812-2.878 2.795-4.251 8.786-3.186 13.904.665 3.198.863 3.616 1.981 4.186 1.52.775 5.423 1.85 7.67 2.11 2.454.286 7.28.102 10.473-.398zm-30.184-5.841c2.726-.45 6.192-1.3 7.464-1.832l.87-.363v-2.22c0-4.076 1.462-8.064 3.742-10.21.56-.527 1.02-1.143 1.02-1.368 0-.672-1.88-2.296-3.47-2.998-.817-.36-1.56-.853-1.653-1.093-.093-.241-.17-1.827-.172-3.525-.002-1.698-.098-3.236-.214-3.417-.422-.665-11.018 1.723-17.422 3.925-6.074 2.09-7.576 3.156-9.134 6.485-1.637 3.497-1.853 7.564-.652 12.26l.57 2.233 1.751.713c4.96 2.02 10.74 2.491 17.3 1.41zm62.87-42.153c3.984-.86 8.881-1.89 10.882-2.286 2.001-.397 3.638-.81 3.638-.917 0-.217-2.447-.604-12.568-1.984-3.783-.515-7.95-1.107-9.26-1.314-3.507-.554-19.752-3.283-21.224-3.565-.988-.19-2.455-.07-6.69.542-6.522.943-14.54 2.34-15.059 2.622-.45.245.039.361 3.947.933 4.746.694 12.906 2.178 18.95 3.446 4.688.984 17.466 3.58 19.976 4.058.09.017 3.424-.674 7.408-1.535zm23.73-33.087c2.429-.432 6.44-1.098 8.914-1.48 5.086-.785 5.87-1.037 3.947-1.268-3.109-.375-16.045-1.324-27.864-2.044l-9.364-.57-6.907.574c-8.85.734-16.86 1.547-17.04 1.728-.079.078-.093.188-.032.244.176.163 15.088 1.435 22.335 1.906 5.09.33 15.14 1.118 21.248 1.665.19.017 2.333-.322 4.762-.755z" id="path185" fill="#4bc9fd"/><path d="M103.339 239.943c-10.6-1.592-17.868-4.919-22.811-10.44-.963-1.076-2.148-2.396-2.633-2.933l-.882-.976-2.514.258c-5.53.567-13.305-.332-18.918-2.189-6.352-2.1-10.82-5.135-14.932-10.139-1.882-2.29-2.618-3.455-4.24-6.706-2.973-5.957-4.843-13.581-4.378-17.848.48-4.41 2.19-8.18 4.298-9.483.475-.294.864-.673.863-.843 0-.17-.744-1.098-1.653-2.063-3.504-3.714-6.305-8.404-8.278-13.857-2.012-5.56-2.718-11.44-1.846-15.373 1.306-5.89 4.173-8.356 12.836-11.04 4.071-1.262 10.375-2.86 13.23-3.355.945-.164 1.993-.354 2.328-.421l.609-.123-.186-9.98c-.167-8.957-.143-10.016.236-10.33.74-.614 8.817-2.278 17.65-3.636 3.274-.503 6.22-.975 6.548-1.049.594-.133.596-.146.596-5.618.001-9.048.32-18.56.637-18.982.329-.438 3.037-.868 11.533-1.833 10.015-1.137 14.732-1.338 22.832-.972 15.722.71 38.359 2.412 39.387 2.962.534.286.537.415.478 22.16-.032 12.029-.043 24.223-.024 27.097l.034 5.225h.647c.91 0 4.721-1.236 6.716-2.178 2.08-.982 4.312-2.817 5.848-4.81 1.255-1.627 1.205-1.995-.27-2.004-1.106-.007-3.804-1.51-4.962-2.767-2.485-2.696-3.574-6.105-3.597-11.26-.018-3.904.19-5.426.775-5.65.619-.238 3.26.569 5.197 1.587 2.241 1.177 5.011 3.682 5.98 5.406.402.716.814 1.303.914 1.303.1 0 .567-.719 1.035-1.598 1.54-2.89 5.504-5.806 9.486-6.977 1.72-.506 1.847-.421 2.548 1.696.55 1.663.609 4.615.136 6.886-.654 3.146-3.386 7.305-6.187 9.42a93.707 93.707 0 0 0-1.859 1.427c-.117.101.154 2.711.603 5.8 1.784 12.268 2.345 19.471 1.878 24.092-.65 6.427-2.334 11.081-5.9 16.31l-1.288 1.89.163 1.947c.09 1.07.047 2.54-.096 3.264-.143.726-.211 1.397-.153 1.492.06.095.853-.13 1.764-.501 3.067-1.25 7.407-1.073 11.181.454 1.792.725 1.851.779 1.824 1.639-.077 2.372-3.246 6.329-6.395 7.984-2.221 1.167-4.957 1.94-7.72 2.18-2.098.184-2.132.199-3.28 1.427-.638.682-1.678 2.066-2.31 3.075-1.744 2.782-7.583 11.416-8.935 13.211-3.353 4.453-11.183 12.805-14.562 15.532-8.044 6.493-17.96 10.749-27.895 11.974-2.95.363-10.285.507-12.086.236zm13.89-2.755c4.17-.69 11.385-2.887 12.568-3.827.218-.174 1.392-.809 2.608-1.41 2.59-1.282 6.738-3.955 9.401-6.059 2.441-1.928 8.819-8.303 11.182-11.177 2.883-3.508 8.758-11.56 12.448-17.066.878-1.31 2.182-2.927 2.897-3.595 1.283-1.197 1.33-1.215 3.541-1.378 2.926-.216 4.968-.76 7.378-1.967 3.123-1.564 6.99-5.844 6.012-6.656-.704-.584-4.53-1.367-6.784-1.389-2.767-.026-4.075.305-6.572 1.664-1.068.582-2.006.994-2.084.917-.077-.078.066-.653.32-1.277.475-1.17.898-5.766.531-5.766-.113 0-1.534 1.28-3.157 2.844-1.623 1.565-3.625 3.32-4.449 3.903-.823.582-1.5 1.237-1.506 1.455-.005.218.287.915.649 1.549.362.633.658 1.312.658 1.51 0 .613-2.184 1.674-4.381 2.129-1.56.323-2.748.39-4.617.262-2.325-.16-2.644-.12-4.233.525-2.824 1.147-8.518 2.72-11.344 3.133-3.251.476-7.982.651-11.473.425-6.264-.405-11.64-1.747-16.207-4.045l-2.117-1.065-2.91.693c-1.601.381-3.923.832-5.16 1.001-3.297.453-11.517.356-14.42-.17-4.346-.788-4.868-.787-6.894.009-3.5 1.374-4.643 2.34-6.045 5.107-1.577 3.113-2.014 7.67-1.117 11.665.63 2.803.874 3.17 2.579 3.882 3.574 1.492 5.578 1.834 10.684 1.821 5.225-.012 7.583-.337 12.306-1.694a61.965 61.965 0 0 0 11.435-4.578c2.982-1.556 3.616-1.729 3.297-.896-.224.583-4.975 3.16-8.324 4.516-11.38 4.605-21.457 5.299-29.107 2.003-.769-.331-1.454-.546-1.522-.477-.416.416 2.23 6.289 4.176 9.27 3.553 5.443 7.951 9.122 13.834 11.57 7.698 3.204 16.858 4.136 25.92 2.639zm3.134-24.601c-3.189-.63-5.517-3.095-5.83-6.17-.341-3.362 2.501-7.5 6.04-8.796.635-.233 1.988-.44 3.006-.462 1.576-.033 2.084.078 3.404.747 2.468 1.25 4.024 3.484 4.306 6.181.4 3.817-2.334 7.243-6.683 8.376-1.666.434-2.547.46-4.243.124zm5.528-1.817c1.608-.78 3.285-2.412 3.923-3.816 1.827-4.024-1.678-9.173-6.244-9.173-1.166 0-1.164.331.007 1.022 3.6 2.125 2.11 7.595-2.43 8.924-2.306.675-4.006-.016-5.291-2.147-.277-.46-.317-.385-.33.612-.03 2.19 1.578 4.184 4.011 4.972 1.693.548 4.81.355 6.354-.394zm-50.61 12.688c.322-.203.159-.724-.974-3.105-2.888-6.07-3.862-9.934-3.89-15.428-.012-2.551.106-4.28.354-5.16.41-1.455 1.395-3.565 2.193-4.696.6-.851.225-.959-.805-.231-3.582 2.53-13.77 6.097-19.706 6.897-2.657.359-8.097.36-10.118.001-1.892-.335-4.641-1.197-6.011-1.885-.55-.276-1.113-.433-1.25-.349-.635.392 2.798 7.533 5.323 11.073 4.866 6.824 13.522 11.489 23.651 12.747 3.149.391 10.686.482 11.234.136zm-25.16-22.772c6.737-.597 13.032-2.478 19.973-5.969 1.87-.94 3.657-1.677 3.97-1.638.565.072 4.665-1.882 4.667-2.224 0-.099-.683-.428-1.52-.732-1.482-.539-2.205-.88-5.49-2.593l-1.588-.827-2.91.2c-6.504.448-13.068-.305-18.52-2.123-3.198-1.066-7.109-2.967-9.159-4.453-.61-.44-1.268-.802-1.465-.802-.604 0-2.298 1.908-3.172 3.575-1.734 3.305-2.138 8.03-1.063 12.43.557 2.283.623 2.402 1.634 2.96 1.544.85 5.504 1.94 7.933 2.183 3.06.305 3.394.306 6.71.013zm88.622-7.78c5.025-.938 8.79-2.144 12.882-4.125 12.071-5.845 20.835-14.657 24.071-24.205 2.313-6.822 2.583-17.274.745-28.84-.231-1.455-.427-4.088-.436-5.851l-.016-3.206 2.28-2.444c3.693-3.957 5.537-8.39 5.133-12.338-.303-2.954-.44-3.01-3.478-1.439-3.979 2.059-6.379 4.585-7.427 7.816-.236.728-.59 1.493-.785 1.7-.306.326-.377.307-.51-.132-.893-2.965-4.037-6.59-7.274-8.387-1.838-1.02-4.09-1.747-4.413-1.424-.374.374-.059 5.745.454 7.75 1.202 4.701 3.292 7.506 6.828 9.164l2.208 1.035-.172.968c-.21 1.183-1.705 3.432-3.357 5.053-1.817 1.78-3.892 2.915-7.6 4.155-2.413.807-3.364 1.247-3.502 1.622-.105.283-.389.59-.63.684-.647.248-17.289 3.847-27.122 5.865-1.673.343-8.204 1.821-14.513 3.284-6.31 1.463-11.566 2.6-11.682 2.529-.23-.142-4.177-.925-4.662-.925-.584 0-2.164 3.529-2.591 5.783-.542 2.865-.524 4.397.087 7.313.757 3.61.79 3.664 2.802 4.47 3.362 1.345 5.981 1.807 10.318 1.82 2.183.006 4.922-.135 6.086-.315 5.487-.847 12.172-3.065 17.269-5.732 3.188-1.667 4.03-1.966 4.03-1.428 0 .41-3.463 2.563-6.018 3.744-2.95 1.362-9.253 3.452-12.768 4.233-2.414.536-3.471.615-8.07.606-4.996-.01-5.421-.051-7.625-.732-1.284-.397-2.814-.966-3.4-1.264-.585-.3-1.138-.47-1.228-.38-.447.447 2.287 6.46 4.452 9.795 1.852 2.852 6.402 7.289 9.159 8.931 4.198 2.501 9.733 4.347 15.311 5.105 3.409.463 12.094.316 15.164-.258zm2.203-24.785c-2.131-.643-3.892-2.273-4.677-4.33-1.294-3.387 1.035-8.241 4.851-10.116 1.294-.635 1.83-.74 3.758-.74 1.87 0 2.465.11 3.527.652a7.731 7.731 0 0 1 4.252 6.888c.02 3.108-1.59 5.417-4.868 6.98-1.42.677-2.09.83-3.837.877-1.164.032-2.517-.063-3.006-.21zm6.1-1.624c2.79-1.282 4.366-3.282 4.634-5.876.133-1.29.048-1.677-.704-3.204-1.292-2.624-3.455-3.97-6.07-3.775l-1.163.086 1.022.662c1.448.937 2.23 2.207 2.23 3.621 0 2.95-2.954 5.639-6.195 5.639-1.315 0-2.367-.59-3.063-1.715-1.217-1.97-1.318.302-.108 2.42 1.56 2.728 5.962 3.73 9.417 2.142zm13.244 23.838c.837-.163 1.522-.397 1.522-.52 0-.415-1.716-2.584-2.056-2.6-.185-.01-.78.263-1.323.605-.543.342-1.731 1.01-2.64 1.482-1.72.894-1.975 1.202-1.191 1.434.628.186 3.824-.04 5.688-.401zm-58.936-.448a28.88 28.88 0 0 1 2.25-.42c2.15-.302 2.152-.463.038-2.42-2.25-2.084-4.586-4.897-5.913-7.125-2.526-4.238-4.56-9.328-5.39-13.494-.262-1.31-.562-2.484-.668-2.609-.105-.125-1.363.252-2.795.84-3.036 1.244-7.74 2.7-10.937 3.386-1.73.371-3.441.484-7.409.491-5.661.01-7.232-.25-10.553-1.744-.93-.419-1.734-.76-1.786-.76-.544 0 .635 3.137 2.587 6.888 3.395 6.523 8.51 11.264 15.194 14.085 3.399 1.435 7.388 2.512 11.095 2.997 2.954.386 12.519.31 14.287-.115zm-34.263-5.676c0-.187-.61-.931-1.356-1.653-2.854-2.764-5.631-7.045-7.46-11.5-1.546-3.761-2.826-8.121-2.826-9.62 0-1.114-.428-1.201-2.598-.53-4.795 1.481-7.007 1.806-12.35 1.81-5.446.006-7.46-.336-10.881-1.85-.827-.365-1.568-.6-1.647-.522-.381.382 2.66 6.95 4.598 9.928 1.763 2.71 5.572 6.474 8.436 8.336 4.173 2.715 10.245 4.812 16.03 5.537 3.833.48 10.054.52 10.054.064zm9.679-17.26c3.062-.48 7.943-1.884 11.642-3.349l2.888-1.143.076-2.441c.088-2.828-.009-3.08-2.181-5.699-1.681-2.026-4.853-4.652-6.826-5.652-1.266-.642-15.322-4.33-16.509-4.33-1.054-.003-5.05 1.862-6.028 2.812-2.878 2.795-4.251 8.786-3.186 13.904.665 3.198.863 3.616 1.981 4.186 1.52.775 5.423 1.85 7.67 2.11 2.454.286 7.28.102 10.473-.398zm-30.184-5.841c2.726-.45 6.192-1.3 7.464-1.832l.87-.363v-2.22c0-4.076 1.462-8.064 3.742-10.21.56-.527 1.02-1.143 1.02-1.368 0-.672-1.88-2.296-3.47-2.998-.817-.36-1.56-.853-1.653-1.093-.093-.241-.17-1.827-.172-3.525-.002-1.698-.098-3.236-.214-3.417-.422-.665-11.018 1.723-17.422 3.925-6.074 2.09-7.576 3.156-9.134 6.485-1.637 3.497-1.853 7.564-.652 12.26l.57 2.233 1.751.713c4.96 2.02 10.74 2.491 17.3 1.41zm54.136-25.337c0-7.839-.054-14.304-.118-14.369-.065-.065-2.006-.46-4.314-.879a476.204 476.204 0 0 1-10.017-1.978c-3.201-.67-7.002-1.454-8.445-1.742-6.05-1.21-21.567-3.796-21.74-3.623-.063.062-.127 6.11-.142 13.44-.028 12.774-.009 13.334.465 13.525.271.109 2.1.512 4.065.894 1.965.383 5.775 1.23 8.467 1.881l9.79 2.368c2.692.65 8.347 1.944 12.567 2.874 4.22.93 7.911 1.746 8.202 1.814 1.277.296 1.222.938 1.22-14.205zm8.734-16.816c3.984-.86 8.881-1.89 10.882-2.286 2.001-.397 3.638-.81 3.638-.917 0-.217-2.447-.604-12.568-1.984-3.783-.515-7.95-1.107-9.26-1.314-3.507-.554-19.752-3.283-21.224-3.565-.988-.19-2.455-.07-6.69.542-6.522.943-14.54 2.34-15.059 2.622-.45.245.039.361 3.947.933 4.746.694 12.906 2.178 18.95 3.446 4.688.984 17.466 3.58 19.976 4.058.09.017 3.424-.674 7.408-1.535zm17.48-12.196c.1-4.29.218-10.295.264-13.343l.083-5.542-.926-.191c-.84-.174-5.066-.507-21.563-1.703-6.106-.442-11.325-.93-18.389-1.719-2.546-.284-4.838-.517-5.093-.517-.434 0-.463.742-.463 11.874 0 9.182.075 11.933.33 12.136.536.426 43.84 6.99 45.178 6.85.339-.036.424-1.194.579-7.845zm6.25-20.89c2.429-.433 6.44-1.1 8.914-1.48 5.086-.786 5.87-1.038 3.947-1.27-3.109-.374-16.045-1.323-27.864-2.043l-9.364-.57-6.907.574c-8.85.734-16.86 1.547-17.04 1.728-.079.078-.093.188-.032.244.176.163 15.088 1.435 22.335 1.906 5.09.33 15.14 1.118 21.248 1.665.19.017 2.333-.322 4.762-.755z" id="path183" fill="#008cc9"/><path d="M103.339 239.943c-10.6-1.592-17.868-4.919-22.811-10.44-.963-1.076-2.148-2.396-2.633-2.933l-.882-.976-2.514.258c-5.53.567-13.305-.332-18.918-2.189-6.352-2.1-10.82-5.135-14.932-10.139-1.882-2.29-2.618-3.455-4.24-6.706-2.973-5.957-4.843-13.581-4.378-17.848.48-4.41 2.19-8.18 4.298-9.483.475-.294.864-.673.863-.843 0-.17-.744-1.098-1.653-2.063-3.504-3.714-6.305-8.404-8.278-13.857-2.012-5.56-2.718-11.44-1.846-15.373 1.306-5.89 4.173-8.356 12.836-11.04 4.071-1.262 10.375-2.86 13.23-3.355.945-.164 1.993-.354 2.328-.421l.609-.123-.186-9.98c-.167-8.957-.143-10.016.236-10.33.74-.614 8.817-2.278 17.65-3.636 3.274-.503 6.22-.975 6.548-1.049.594-.133.596-.146.596-5.618.001-9.048.32-18.56.637-18.982.329-.438 3.037-.868 11.533-1.833 10.015-1.137 14.732-1.338 22.832-.972 15.722.71 38.359 2.412 39.387 2.962.534.286.537.415.478 22.16-.032 12.029-.043 24.223-.024 27.097l.034 5.225h.647c.91 0 4.721-1.236 6.716-2.178 2.08-.982 4.312-2.817 5.848-4.81 1.255-1.627 1.205-1.995-.27-2.004-1.106-.007-3.804-1.51-4.962-2.767-2.485-2.696-3.574-6.105-3.597-11.26-.018-3.904.19-5.426.775-5.65.619-.238 3.26.569 5.197 1.587 2.241 1.177 5.011 3.682 5.98 5.406.402.716.814 1.303.914 1.303.1 0 .567-.719 1.035-1.598 1.54-2.89 5.504-5.806 9.486-6.977 1.72-.506 1.847-.421 2.548 1.696.55 1.663.609 4.615.136 6.886-.654 3.146-3.386 7.305-6.187 9.42a93.707 93.707 0 0 0-1.859 1.427c-.117.101.154 2.711.603 5.8 1.784 12.268 2.345 19.471 1.878 24.092-.65 6.427-2.334 11.081-5.9 16.31l-1.288 1.89.163 1.947c.09 1.07.047 2.54-.096 3.264-.143.726-.211 1.397-.153 1.492.06.095.853-.13 1.764-.501 3.067-1.25 7.407-1.073 11.181.454 1.792.725 1.851.779 1.824 1.639-.077 2.372-3.246 6.329-6.395 7.984-2.221 1.167-4.957 1.94-7.72 2.18-2.098.184-2.132.199-3.28 1.427-.638.682-1.678 2.066-2.31 3.075-1.744 2.782-7.583 11.416-8.935 13.211-3.353 4.453-11.183 12.805-14.562 15.532-8.044 6.493-17.96 10.749-27.895 11.974-2.95.363-10.285.507-12.086.236zm13.89-2.755c4.17-.69 11.385-2.887 12.568-3.827.218-.174 1.392-.809 2.608-1.41 2.59-1.282 6.738-3.955 9.401-6.059 2.441-1.928 8.819-8.303 11.182-11.177 2.883-3.508 8.758-11.56 12.448-17.066.878-1.31 2.182-2.927 2.897-3.595 1.283-1.197 1.33-1.215 3.541-1.378 2.926-.216 4.968-.76 7.378-1.967 3.123-1.564 6.99-5.844 6.012-6.656-.704-.584-4.53-1.367-6.784-1.389-2.767-.026-4.075.305-6.572 1.664-1.068.582-2.006.994-2.084.917-.077-.078.066-.653.32-1.277.475-1.17.898-5.766.531-5.766-.113 0-1.534 1.28-3.157 2.844-1.623 1.565-3.625 3.32-4.449 3.903-.823.582-1.5 1.237-1.506 1.455-.005.218.287.915.649 1.549.362.633.658 1.312.658 1.51 0 .613-2.184 1.674-4.381 2.129-1.56.323-2.748.39-4.617.262-2.325-.16-2.644-.12-4.233.525-2.824 1.147-8.518 2.72-11.344 3.133-3.251.476-7.982.651-11.473.425-6.264-.405-11.64-1.747-16.207-4.045l-2.117-1.065-2.91.693c-1.601.381-3.923.832-5.16 1.001-3.297.453-11.517.356-14.42-.17-4.346-.788-4.868-.787-6.894.009-3.5 1.374-4.643 2.34-6.045 5.107-1.577 3.113-2.014 7.67-1.117 11.665.63 2.803.874 3.17 2.579 3.882 3.574 1.492 5.578 1.834 10.684 1.821 5.225-.012 7.583-.337 12.306-1.694a61.965 61.965 0 0 0 11.435-4.578c2.982-1.556 3.616-1.729 3.297-.896-.224.583-4.975 3.16-8.324 4.516-11.38 4.605-21.457 5.299-29.107 2.003-.769-.331-1.454-.546-1.522-.477-.416.416 2.23 6.289 4.176 9.27 3.553 5.443 7.951 9.122 13.834 11.57 7.698 3.204 16.858 4.136 25.92 2.639zm3.134-24.601c-3.189-.63-5.517-3.095-5.83-6.17-.341-3.362 2.501-7.5 6.04-8.796.635-.233 1.988-.44 3.006-.462 1.576-.033 2.084.078 3.404.747 2.468 1.25 4.024 3.484 4.306 6.181.4 3.817-2.334 7.243-6.683 8.376-1.666.434-2.547.46-4.243.124zm5.528-1.817c1.608-.78 3.285-2.412 3.923-3.816 1.827-4.024-1.678-9.173-6.244-9.173-1.166 0-1.164.331.007 1.022 3.6 2.125 2.11 7.595-2.43 8.924-2.306.675-4.006-.016-5.291-2.147-.277-.46-.317-.385-.33.612-.03 2.19 1.578 4.184 4.011 4.972 1.693.548 4.81.355 6.354-.394zm-50.61 12.688c.322-.203.159-.724-.974-3.105-2.888-6.07-3.862-9.934-3.89-15.428-.012-2.551.106-4.28.354-5.16.41-1.455 1.395-3.565 2.193-4.696.6-.851.225-.959-.805-.231-3.582 2.53-13.77 6.097-19.706 6.897-2.657.359-8.097.36-10.118.001-1.892-.335-4.641-1.197-6.011-1.885-.55-.276-1.113-.433-1.25-.349-.635.392 2.798 7.533 5.323 11.073 4.866 6.824 13.522 11.489 23.651 12.747 3.149.391 10.686.482 11.234.136zm-25.16-22.772c6.737-.597 13.032-2.478 19.973-5.969 1.87-.94 3.657-1.677 3.97-1.638.565.072 4.665-1.882 4.667-2.224 0-.099-.683-.428-1.52-.732-1.482-.539-2.205-.88-5.49-2.593l-1.588-.827-2.91.2c-6.504.448-13.068-.305-18.52-2.123-3.198-1.066-7.109-2.967-9.159-4.453-.61-.44-1.268-.802-1.465-.802-.604 0-2.298 1.908-3.172 3.575-1.734 3.305-2.138 8.03-1.063 12.43.557 2.283.623 2.402 1.634 2.96 1.544.85 5.504 1.94 7.933 2.183 3.06.305 3.394.306 6.71.013zm88.622-7.78c5.025-.938 8.79-2.144 12.882-4.125 12.071-5.845 20.835-14.657 24.071-24.205 2.313-6.822 2.583-17.274.745-28.84-.231-1.455-.427-4.088-.436-5.851l-.016-3.206 2.28-2.444c3.693-3.957 5.537-8.39 5.133-12.338-.303-2.954-.44-3.01-3.478-1.439-3.979 2.059-6.379 4.585-7.427 7.816-.236.728-.59 1.493-.785 1.7-.306.326-.377.307-.51-.132-.893-2.965-4.037-6.59-7.274-8.387-1.838-1.02-4.09-1.747-4.413-1.424-.374.374-.059 5.745.454 7.75 1.202 4.701 3.292 7.506 6.828 9.164l2.208 1.035-.172.968c-.21 1.183-1.705 3.432-3.357 5.053-1.817 1.78-3.892 2.915-7.6 4.155-2.413.807-3.364 1.247-3.502 1.622-.105.283-.389.59-.63.684-.647.248-17.289 3.847-27.122 5.865-1.673.343-8.204 1.821-14.513 3.284-6.31 1.463-11.566 2.6-11.682 2.529-.23-.142-4.177-.925-4.662-.925-.584 0-2.164 3.529-2.591 5.783-.542 2.865-.524 4.397.087 7.313.757 3.61.79 3.664 2.802 4.47 3.362 1.345 5.981 1.807 10.318 1.82 2.183.006 4.922-.135 6.086-.315 5.487-.847 12.172-3.065 17.269-5.732 3.188-1.667 4.03-1.966 4.03-1.428 0 .41-3.463 2.563-6.018 3.744-2.95 1.362-9.253 3.452-12.768 4.233-2.414.536-3.471.615-8.07.606-4.996-.01-5.421-.051-7.625-.732-1.284-.397-2.814-.966-3.4-1.264-.585-.3-1.138-.47-1.228-.38-.447.447 2.287 6.46 4.452 9.795 1.852 2.852 6.402 7.289 9.159 8.931 4.198 2.501 9.733 4.347 15.311 5.105 3.409.463 12.094.316 15.164-.258zm2.203-24.785c-2.131-.643-3.892-2.273-4.677-4.33-1.294-3.387 1.035-8.241 4.851-10.116 1.294-.635 1.83-.74 3.758-.74 1.87 0 2.465.11 3.527.652a7.731 7.731 0 0 1 4.252 6.888c.02 3.108-1.59 5.417-4.868 6.98-1.42.677-2.09.83-3.837.877-1.164.032-2.517-.063-3.006-.21zm6.1-1.624c2.79-1.282 4.366-3.282 4.634-5.876.133-1.29.048-1.677-.704-3.204-1.292-2.624-3.455-3.97-6.07-3.775l-1.163.086 1.022.662c1.448.937 2.23 2.207 2.23 3.621 0 2.95-2.954 5.639-6.195 5.639-1.315 0-2.367-.59-3.063-1.715-1.217-1.97-1.318.302-.108 2.42 1.56 2.728 5.962 3.73 9.417 2.142zm13.244 23.838c.837-.163 1.522-.397 1.522-.52 0-.415-1.716-2.584-2.056-2.6-.185-.01-.78.263-1.323.605-.543.342-1.731 1.01-2.64 1.482-1.72.894-1.975 1.202-1.191 1.434.628.186 3.824-.04 5.688-.401zm-58.936-.448a28.88 28.88 0 0 1 2.25-.42c2.15-.302 2.152-.463.038-2.42-2.25-2.084-4.586-4.897-5.913-7.125-2.526-4.238-4.56-9.328-5.39-13.494-.262-1.31-.562-2.484-.668-2.609-.105-.125-1.363.252-2.795.84-3.036 1.244-7.74 2.7-10.937 3.386-1.73.371-3.441.484-7.409.491-5.661.01-7.232-.25-10.553-1.744-.93-.419-1.734-.76-1.786-.76-.544 0 .635 3.137 2.587 6.888 3.395 6.523 8.51 11.264 15.194 14.085 3.399 1.435 7.388 2.512 11.095 2.997 2.954.386 12.519.31 14.287-.115zm-34.263-5.676c0-.187-.61-.931-1.356-1.653-2.854-2.764-5.631-7.045-7.46-11.5-1.546-3.761-2.826-8.121-2.826-9.62 0-1.114-.428-1.201-2.598-.53-4.795 1.481-7.007 1.806-12.35 1.81-5.446.006-7.46-.336-10.881-1.85-.827-.365-1.568-.6-1.647-.522-.381.382 2.66 6.95 4.598 9.928 1.763 2.71 5.572 6.474 8.436 8.336 4.173 2.715 10.245 4.812 16.03 5.537 3.833.48 10.054.52 10.054.064zm9.679-17.26c3.062-.48 7.943-1.884 11.642-3.349l2.888-1.143.076-2.441c.088-2.828-.009-3.08-2.181-5.699-1.681-2.026-4.853-4.652-6.826-5.652-1.266-.642-15.322-4.33-16.509-4.33-1.054-.003-5.05 1.862-6.028 2.812-2.878 2.795-4.251 8.786-3.186 13.904.665 3.198.863 3.616 1.981 4.186 1.52.775 5.423 1.85 7.67 2.11 2.454.286 7.28.102 10.473-.398zm-30.184-5.841c2.726-.45 6.192-1.3 7.464-1.832l.87-.363v-2.22c0-4.076 1.462-8.064 3.742-10.21.56-.527 1.02-1.143 1.02-1.368 0-.672-1.88-2.296-3.47-2.998-.817-.36-1.56-.853-1.653-1.093-.093-.241-.17-1.827-.172-3.525-.002-1.698-.098-3.236-.214-3.417-.422-.665-11.018 1.723-17.422 3.925-6.074 2.09-7.576 3.156-9.134 6.485-1.637 3.497-1.853 7.564-.652 12.26l.57 2.233 1.751.713c4.96 2.02 10.74 2.491 17.3 1.41zm54.191-25.302c-.045-13.602-.072-14.358-.529-14.542-.265-.106-2.505-.563-4.98-1.015-2.473-.452-7.533-1.458-11.244-2.235-11.982-2.51-27.102-5.117-27.9-4.811-.363.14-.407 1.683-.388 13.528l.021 13.37.574.131c.315.073 2.538.541 4.939 1.042 2.401.5 8.116 1.825 12.7 2.943 9.9 2.414 25.26 5.883 26.194 5.915l.661.022-.048-14.348zm5.57 13.446c1.91-.497 6.331-1.579 9.824-2.405a808.41 808.41 0 0 0 8.599-2.074l2.249-.572-.074-10.054c-.04-5.53-.143-11.572-.228-13.428-.148-3.238-.177-3.373-.728-3.373-.316 0-4.976.84-10.356 1.869-5.38 1.028-10.436 1.99-11.236 2.138-.8.148-1.533.349-1.628.446-.096.098-.252 6.517-.347 14.266-.133 10.755-.1 14.09.139 14.09.172 0 1.875-.407 3.786-.903zm-2.637-1.053c-.077-.202-.103-5.792-.058-12.422.06-8.642.17-12.141.388-12.36.168-.167 1.119-.475 2.114-.683 1.623-.34 1.84-.336 2.114.038.354.484.431 23.428.082 24.368-.154.415-.652.67-1.936.993-2.108.53-2.522.54-2.704.066zm3.03-1.025l.624-.327-.026-11.618c-.015-6.39-.082-11.672-.149-11.74-.239-.238-1.951.228-2.277.621-.26.312-.295 2.218-.162 8.658.094 4.542.172 9.717.174 11.5.002 3.184.012 3.24.597 3.237.328-.002.876-.151 1.22-.331zm2.596-.107c-.097-.097-.176-5.61-.176-12.252 0-9.25.077-12.18.33-12.517.323-.43 3.994-1.245 4.288-.95.283.282.251 24.572-.032 24.855-.275.274-3.007 1.013-3.815 1.031-.23.005-.498-.07-.595-.167zm3.467-1.618c.185-.241.275-.6.199-.799-.076-.198-.138-5.291-.138-11.318v-10.959h-.645c-.354 0-.965.122-1.357.271l-.713.271.15 11.57c.082 6.362.157 11.611.167 11.664.048.275 2.05-.325 2.337-.7zm2.09.296c-.098-.097-.177-5.552-.177-12.12 0-9.356.074-12.046.342-12.413.382-.523 3.852-1.365 4.198-1.019.306.306.3 24.434-.007 24.74-.137.137-1.004.411-1.928.61-1.956.419-2.192.438-2.428.202zm2.535-1.16l.992-.276v-22.994h-.811c-.446 0-1.042.123-1.323.274-.494.264-.512.673-.512 11.597 0 6.228.08 11.403.176 11.5.23.23.303.224 1.478-.102zm3.064-1.773c-.197-3.925.036-22.653.286-22.902.371-.372 4.05-1.025 4.309-.766.12.12.187 5.68.149 12.356l-.07 12.138-1.851.474c-2.811.72-2.72.762-2.823-1.3zm3.289.151c.435-.223.46-.977.396-11.539l-.069-11.3-.661.065c-.364.035-.93.127-1.257.203l-.595.139v11.328c0 6.23.077 11.405.171 11.5.19.19 1.294-.027 2.015-.396zm14.65-1.25c5.22-1.15 10.562-2.318 11.871-2.595l2.381-.503-.004-4.152c-.002-2.284-.031-8.082-.066-12.884l-.062-8.731h-.674c-1.195 0-23.056 3.798-23.307 4.049-.163.163-.281 16.064-.16 21.55.066 2.946.212 5.357.325 5.357.113 0 4.477-.94 9.696-2.091zm-8.722.592c-.225-.225-.182-20.909.048-22.823l.172-1.437 1.456-.338c2.094-.487 2.906-.46 2.928.102.126 3.24-.108 23.54-.273 23.708-.123.124-.979.388-1.902.586-1.957.42-2.192.439-2.43.202zm2.535-1.16l.993-.276V118.36l-1.125.186c-.618.102-1.216.24-1.327.306-.231.137-.254 21.581-.023 22.181.178.465.208.467 1.482.114zm3.021.102c-.235-.236-.198-21.89.04-23.23l.187-1.05 1.806-.359c.993-.197 1.976-.294 2.182-.215.32.123.366 1.967.308 12.115l-.07 11.97-1.983.461c-2.334.544-2.245.533-2.47.308zm3.016-1.42c.494-.265.512-.672.512-11.412V117.28l-1.1.176c-.604.097-1.2.238-1.322.314-.262.162-.309 21.895-.048 22.156.267.267 1.381.211 1.958-.098zm2.536.356c-.095-.094-.172-5.494-.172-12 0-9.148.075-11.89.33-12.094.582-.464 3.684-.887 4.08-.558.284.235.352 2.59.352 12.016 0 10.938-.03 11.733-.463 11.858-.49.142-2.116.538-3.268.796-.378.085-.765.077-.86-.018zm2.856-1.4l.682-.26-.07-11.051-.068-11.052-.662.064a11.7 11.7 0 0 0-1.256.204l-.596.139v10.931c0 6.012.08 11.01.177 11.107.252.253 1.003.218 1.793-.082zm2.612-.17c-.284-.738.107-23.152.409-23.453.342-.342 3.7-.988 4.18-.804.503.193.527 23.485.024 23.81-.396.254-2.994.835-3.845.859-.332.009-.678-.176-.768-.412zm3.45-1.169c.29-.262.508-21.874.223-22.05-.241-.15-2.124.231-2.372.48-.186.184-.088 21.588.1 21.892.142.23 1.71-.016 2.049-.322zm-40.279-18.489c3.984-.86 8.881-1.89 10.882-2.286 2.001-.397 3.638-.81 3.638-.917 0-.217-2.447-.604-12.568-1.984-3.783-.515-7.95-1.107-9.26-1.314-3.507-.554-19.752-3.283-21.224-3.565-.988-.19-2.455-.07-6.69.542-6.522.943-14.54 2.34-15.059 2.622-.45.245.039.361 3.947.933 4.746.694 12.906 2.178 18.95 3.446 4.688.984 17.466 3.58 19.976 4.058.09.017 3.424-.674 7.408-1.535zm17.666-17.567c.253-9.098.282-13.264.092-13.453-.353-.354-2.446-.578-11.837-1.266-14.854-1.09-21.226-1.625-27.218-2.286-3.328-.368-6.328-.632-6.666-.587l-.615.08-.08 11.827c-.053 7.643.012 11.917.183 12.084.27.265 19.058 3.245 30.957 4.912 3.638.51 8.162 1.157 10.054 1.44 1.892.281 3.737.493 4.1.47l.662-.041zm4.66 12.905c1.164-.224 6.045-1.06 10.847-1.857 4.803-.798 8.998-1.51 9.324-1.582l.592-.131-.017-13.093c-.014-10.49-.085-13.092-.358-13.092-.187 0-2.35.364-4.808.81-2.458.445-7.564 1.258-11.347 1.806l-6.88.996-.175 1.567c-.097.862-.264 6.836-.371 13.275l-.195 11.708h.635c.35 0 1.588-.183 2.752-.407zm-2.065-1.084c-.234-.234-.241-14.574-.01-19.911.143-3.322.249-4.064.603-4.254.236-.126 1.308-.316 2.383-.422l1.953-.193-.174 9.498c-.096 5.223-.175 10.59-.176 11.927 0 2.721.124 2.56-2.304 2.974-.698.118-1.454.294-1.68.39-.225.097-.493.093-.595-.01zm3.288-1.367c.256-.287.542-22.218.292-22.372-.208-.13-2.13.208-2.294.402-.042.05-.153 5.135-.248 11.303l-.173 11.213 1.129-.18c.62-.1 1.203-.264 1.294-.366zm2.223.223c-.217-.351-.147-16.978.089-21.045l.169-2.91 1.984-.298c1.091-.163 2.146-.235 2.344-.159.3.116.327 2.1.165 11.94-.117 7.107-.296 11.865-.45 11.963-.142.09-.94.235-1.775.322-.835.088-1.705.23-1.933.318-.228.087-.495.029-.593-.13zm3.333-1.3c.238-.24.53-21.943.296-22.083-.108-.065-.673-.04-1.255.055l-1.058.174-.215 10.809c-.118 5.945-.15 10.979-.07 11.187.109.282.4.334 1.141.202.548-.098 1.07-.252 1.16-.344zm2.04.165c-.176-.578.233-22.8.428-23.263.205-.487 3.537-1.19 4.283-.903.376.144.398 1.335.228 11.865-.104 6.438-.266 11.781-.36 11.874-.173.172-3.317.758-4.065.758-.228 0-.459-.15-.514-.331zm3.38-.93c.205-.135.337-3.584.432-11.272l.138-11.077-1.059.142c-.582.078-1.155.241-1.271.362-.117.12-.299 5.13-.404 11.133l-.19 10.914 1.03-.004c.567-.002 1.163-.091 1.325-.198zm2.348-.111c-.08-.21-.046-5.531.076-11.826.182-9.43.287-11.486.597-11.678.528-.326 3.887-.867 4.197-.675.282.174.084 23.701-.202 24.009-.091.098-1.146.262-2.344.364-1.774.152-2.205.116-2.324-.194zm3.585-.923c.116-.12.246-5.16.29-11.2l.08-10.98-1.034.065c-.569.035-1.16.19-1.314.343-.185.185-.308 4.011-.364 11.284l-.085 11.005 1.109-.149c.61-.081 1.203-.247 1.318-.368zM133.185 85.87c2.43-.432 6.441-1.098 8.915-1.48 5.086-.785 5.87-1.037 3.947-1.268-3.109-.375-16.045-1.324-27.864-2.044l-9.364-.57-6.907.574c-8.85.734-16.86 1.547-17.04 1.728-.079.078-.093.188-.032.244.176.163 15.088 1.435 22.335 1.906 5.09.33 15.14 1.118 21.248 1.665.19.017 2.333-.322 4.762-.755z" id="path181" fill="#1b68a5"/><path d="M104.662 239.852c-5.358-.415-11.372-1.967-15.346-3.96-4.024-2.018-8.28-5.525-10.927-9.003l-.904-1.187-6.586-.006c-6.137-.005-6.812-.055-9.894-.717-4.08-.876-6.894-1.792-9.682-3.15-6.413-3.126-11.13-7.877-14.601-14.704-3.737-7.35-5.313-15.126-4.171-20.57.6-2.86 2.034-5.538 3.603-6.73.644-.489 1.215-1.007 1.268-1.151.054-.144-.551-.934-1.344-1.756-3.106-3.22-4.485-5.169-6.506-9.195-2.245-4.474-3.704-9.172-4.288-13.811-.633-5.018.748-10.344 3.333-12.854 2.744-2.665 13.217-6.254 23.657-8.106.946-.168 1.865-.425 2.043-.572.238-.198.29-1.342.196-4.409-.237-7.798-.32-14.195-.194-15.037.07-.464.32-.917.556-1.007 1.425-.547 9.835-2.164 17.243-3.314 2.838-.441 5.545-.864 6.016-.94.471-.076.961-.341 1.089-.59.128-.248.247-4.5.266-9.447.018-4.948.11-10.337.204-11.976.157-2.752.213-2.99.73-3.1.47-.1 2.955-.424 12.2-1.595 3.963-.502 13.368-1.14 14.034-.951l.783.22-.926.163c-.51.09-3.903.406-7.54.704-10.629.868-15.247 1.392-15.626 1.77-.19.19-.805.345-1.369.345-.563 0-1.167.143-1.342.318-.495.495-.447 23.371.051 24.327l.365.7-1.49-.001c-3.09-.001-21.496 3.106-21.495 3.628 0 .146 1.346.476 2.99.735 10.56 1.659 16 2.69 31.036 5.88 2.474.525 5.821 1.182 7.439 1.459l2.94.504 5.394-1.198c2.966-.66 8.007-1.73 11.202-2.38 3.194-.65 5.87-1.244 5.945-1.32.343-.342-.987-.607-7.723-1.539-9.064-1.254-20.272-2.927-23.213-3.465-1.237-.226-2.96-.534-3.83-.683-1.533-.264-2.216-.506-1.428-.506.213 0 2.763.357 5.667.793 4.89.734 24.058 3.486 29.69 4.263 1.529.21 2.536.243 2.68.088.21-.227.832-18.795.826-24.664-.003-2.412-.015-2.458-.706-2.721-.386-.147-4.583-.559-9.326-.914-16.31-1.224-22.914-1.767-24.234-1.991-1.11-.189-.962-.21.926-.127 4.525.197 29.735 1.986 33.464 2.375.58.06 4.092-.409 7.806-1.042 3.713-.633 8.12-1.356 9.794-1.607 5.315-.796 5.027-.966-2.645-1.569-2.838-.223-6.529-.518-8.202-.655-1.674-.138-4.174-.32-5.557-.406a754.757 754.757 0 0 1-5.953-.401c-1.892-.136-4.57-.322-5.953-.413-4.244-.281-3.045-.456 1.852-.269 4.692.179 7.843.369 17.86 1.075 12.973.915 16.452 1.272 16.917 1.737.173.173.267 9.583.272 27.1.006 19.972.087 26.916.315 27.144.232.233.807.16 2.381-.302 4.633-1.358 6.855-2.56 9.49-5.133.801-.781 1.37-1.28 1.265-1.11-.946 1.543-1.867 2.69-2.805 3.495-1.46 1.253-4.79 2.875-7.595 3.7-1.664.49-2.42.86-2.91 1.43-.585.678-1.062.848-4.101 1.462-1.892.382-4.392.922-5.557 1.2-2.011.478-11.561 2.507-18.124 3.85-1.673.342-7.983 1.77-14.022 3.171-6.916 1.606-11.323 2.508-11.907 2.437a70.337 70.337 0 0 1-2.86-.458c-2.278-.408-2.263-.416-3.479 2.047-1.131 2.29-1.688 5.194-1.532 7.993.165 2.985.88 5.926 1.665 6.86.444.527.545.828.345 1.027-.377.378.023 1.58 1.743 5.225 1.981 4.2 3.595 6.527 6.613 9.538 4.244 4.233 9.04 6.808 15.752 8.457 13.655 3.353 28.133.654 40.535-7.559 7.87-5.211 12.866-10.933 16.178-18.53.757-1.736 1.932-6.484 2.293-9.266.6-4.623.203-14.234-.907-21.93-.417-2.895-.505-4.152-.274-3.921.21.21 1.626 10.685 2.12 15.695.529 5.357.412 11.902-.267 14.949-.993 4.454-2.672 8.351-5.211 12.099l-1.394 2.056.07 2.249c.04 1.237-.04 2.826-.176 3.53-.284 1.478-.374 1.463 2.473.418 2.023-.742 5.577-.807 8.07-.148 2.249.596 4.497 1.635 4.497 2.08 0 1.036-1.886 4.16-3.447 5.706-2.692 2.667-7.342 4.553-11.226 4.553-1.529 0-1.68.058-2.583.993-.528.545-3.048 4.113-5.6 7.927-7.125 10.647-8.506 12.39-15.216 19.214-4.209 4.28-6.323 6.075-9.95 8.449-10.246 6.707-22.183 9.841-33.998 8.927zm12.964-2.48c15.758-2.99 28.105-11.829 40.741-29.168 2.805-3.848 4.79-6.663 7.073-10.026 1.185-1.746 2.572-3.577 3.082-4.07.86-.83 1.096-.91 3.317-1.114 5.881-.543 9.95-2.626 12.853-6.581.491-.67.972-1.533 1.07-1.918.168-.672.102-.723-1.635-1.263-4.51-1.4-8.28-1.267-11.617.412-.993.5-1.883.908-1.98.908-.096 0-.013-.621.184-1.38.476-1.837.485-5.5.013-5.5-.19 0-1.47 1.162-2.844 2.581-1.375 1.42-3.422 3.272-4.55 4.116-2.317 1.735-2.424 2.033-1.38 3.859.366.64.59 1.235.499 1.323-.091.088-.726-.473-1.411-1.247l-1.246-1.408-2.894 1.61c-1.592.885-2.895 1.756-2.895 1.936 0 .226.738.369 2.382.461l2.38.133-1.177.355c-.84.252-1.906.304-3.705.178-2.33-.162-2.668-.12-4.378.53-7.157 2.73-12.982 3.696-21.034 3.49-4.192-.107-5.738-.258-8.246-.805-3.678-.802-7.967-2.251-9.916-3.351-1.666-.94-1.898-.954-4.58-.27-5.603 1.431-14.489 1.766-20.028.754-3.765-.687-4.425-.685-6.316.023-3.792 1.419-5.248 2.635-6.708 5.604-1.712 3.48-1.98 7.452-.831 12.333.673 2.864.88 3.054 4.502 4.14 3.706 1.11 5.51 1.311 10.3 1.147 7.44-.255 14.355-2.164 21.898-6.043 1.682-.865 3.11-1.52 3.176-1.455.328.33-4.096 2.813-7.603 4.269-10.65 4.42-21.034 5.29-28.325 2.373-3.309-1.324-3.279-1.344-2.19 1.42 2.79 7.08 7.011 12.639 12.268 16.155 4.041 2.703 10.11 4.877 16.008 5.734 3.264.474 12.726.326 15.743-.246zm3.704-24.946c-2.712-.408-4.922-1.808-5.837-3.698-.5-1.034-.565-1.504-.444-3.255.093-1.359.335-2.43.721-3.186.826-1.62 2.849-3.542 4.315-4.102 1.242-.474 1.253-.473 2.46.155 3.464 1.806 3.958 4.977 1.192 7.66-2.714 2.633-6.499 2.35-7.711-.577-.537-1.295-.867-.902-.709.843.259 2.856 2.026 4.609 5.317 5.275 3.003.607 5.866-.38 8.06-2.781 2.437-2.666 2.477-6.12.1-8.66-.373-.4-.612-.792-.531-.873.22-.22 1.745 1.802 2.233 2.963.235.558.44 1.79.457 2.735.025 1.44-.097 1.949-.745 3.123-1.544 2.796-5.716 4.853-8.878 4.378zm-45.58 11.18c.084-.084-.469-1.478-1.228-3.098-2.91-6.204-4.514-12.981-4.113-17.387.36-3.96 2.07-7.829 4.152-9.396.475-.358 1.74-1.115 2.812-1.682 1.071-.566 1.932-1.144 1.914-1.284-.018-.14-1.032-.624-2.253-1.076a38.554 38.554 0 0 1-4.296-1.964l-2.075-1.143-6.88-.03c-6.431-.029-7.085-.077-10.054-.74-5.589-1.248-9.538-2.835-13.397-5.386-.965-.638-1.982-1.16-2.26-1.16-1.346 0-3.955 3.99-4.714 7.208-.885 3.755-.103 10.631 1.364 11.991.442.41.535.63.299.708-.494.165.043 1.999 1.49 5.094 3.672 7.86 9.176 13.314 16.436 16.286 3.315 1.357 7.903 2.571 11.498 3.043 2.675.352 10.958.363 11.305.016zm-32.26-21.882c-2.229-.268-6.528-1.57-7.44-2.254-.524-.392-.529-.414-.048-.247.291.1 1.508.468 2.704.815 8.747 2.541 20.058.734 31.583-5.046 1.618-.812 2.997-1.422 3.063-1.356.181.18-3.531 2.433-5.335 3.236-4.363 1.941-10.353 3.814-14.22 4.445-3.251.531-7.791.71-10.307.407zm58.757-11.849c1.655-.286 3.13-.64 3.277-.788.18-.18-.48-.974-2.024-2.436-3.935-3.725-6.642-7.8-8.865-13.344-1.136-2.832-2.407-7.24-2.408-8.35 0-.372-.15-.878-.332-1.124-.303-.41-.602-.34-3.638.86-7.957 3.143-14.986 4.395-21.01 3.744-2.978-.322-7.076-1.478-8.187-2.31-.525-.393-.528-.411-.039-.242 4.482 1.555 8.213 2.128 12.422 1.908 5.61-.294 11.02-1.503 16.636-3.717 3.716-1.465 3.618-1.354 3.618-4.094 0-2.746.705-5.813 1.775-7.715.464-.827.635-1.383.47-1.529-.143-.126-1.868-.56-3.832-.962-1.965-.404-8.216-1.897-13.891-3.318L65.9 143.873l-2.038.75c-3.525 1.295-4.85 2.4-6.281 5.242-1.172 2.327-1.694 5.168-1.53 8.325.167 3.203.99 6.496 1.753 7.005.43.288.474.445.232.833-.231.37-.19.768.182 1.762.76 2.03 3.242 6.892 4.354 8.525 5.265 7.733 13.654 12.429 24.892 13.932 3.72.497 10.78.32 14.783-.372zm-35.718-5.224c.454-.09.826-.303.826-.472 0-.168-.664-.957-1.476-1.753-4.53-4.438-8.686-12.589-10.041-19.696-.222-1.16-.51-2.218-.643-2.35-.143-.143-1.445.093-3.234.586-3.92 1.082-5.26 1.323-9.123 1.638-4.845.396-9.136-.203-12.763-1.78-1.847-.801-1.625-1.028.333-.34 6.249 2.196 15.181 1.919 23.189-.72l1.455-.48.174-2.91c.36-6.057 2.161-9.248 6.64-11.764.836-.47 1.52-.952 1.52-1.07 0-.12-1.637-.588-3.637-1.042-5.353-1.212-4.936-.795-5.094-5.096-.072-1.984-.223-3.699-.334-3.81-.308-.306-8.296 1.332-12.953 2.657-4.517 1.284-9.31 3.062-10.835 4.018-2.593 1.626-4.722 6.714-4.714 11.267.001.916.283 2.908.627 4.427.486 2.154.769 2.887 1.285 3.33.585.504.612.6.233.84-.384.242-.336.501.462 2.49 4.574 11.396 11.937 17.894 23.517 20.754 4.654 1.15 12.003 1.793 14.586 1.276zm34.551-48.848l-.036-14.619-1.036-.308c-.569-.17-2.226-.515-3.68-.767-1.456-.253-5.206-.985-8.335-1.628-7.095-1.457-13.218-2.678-14.95-2.981-10.874-1.903-15.71-2.664-16.501-2.598l-.96.08-.07 13.526c-.053 10.625.004 13.58.265 13.78.184.141 2 .587 4.038.991 3.805.756 8.055 1.748 21.563 5.032 1.528.372 5.993 1.381 9.922 2.244 3.93.862 7.382 1.621 7.673 1.686a9.24 9.24 0 0 0 1.336.15l.807.03zm5.679 13.694c1.975-.508 7.337-1.819 11.914-2.913 4.578-1.093 8.426-2.091 8.552-2.217.266-.265-.063-26.838-.338-27.283-.185-.3-.886-.193-9.525 1.453l-8.335 1.586c-7.218 1.373-6.74 1.148-6.78 3.199a51.598 51.598 0 0 1-.095 2.426c-.048.554-.182 23.498-.144 24.474.015.374 1.16.199 4.75-.725zm46.291-10.858c.15-.157.157-2.884.018-7.004a494.82 494.82 0 0 1-.24-12.882c-.007-3.375-.118-6.202-.247-6.281-.365-.226-22.89 3.602-24.04 4.085l-.596.25v13.447c0 8.729.094 13.54.268 13.715.297.296 24.404-4.877 24.837-5.33zm-17.961-24.578a1175.91 1175.91 0 0 1 11.112-1.896c3.274-.54 6.102-1.098 6.284-1.24.257-.199.33-3.21.33-13.453V84.275h-.712c-.391 0-2.802.373-5.357.83-2.555.456-7.614 1.262-11.243 1.791l-6.597.961-.202.757c-.111.416-.27 5.534-.354 11.372-.084 5.838-.215 11.489-.292 12.556-.16 2.224.103 2.794 1.186 2.572.377-.077 3.007-.55 5.845-1.053zm-31.97 57.512c-2.32-.287-4.982-1.06-6.792-1.974-.727-.367-1.085-.597-.794-.511 6.01 1.773 8.266 2.11 12.568 1.875 7.286-.397 14.19-2.324 21.535-6.012 1.73-.868 3.197-1.528 3.26-1.466.228.23-2.429 1.847-5.044 3.071-8.362 3.915-17.94 5.858-24.732 5.017zm37.526-3.926c-1.843-.653-3.757-2.622-4.184-4.303-.16-.63-.193-1.244-.074-1.363.119-.119.294.273.39.87.402 2.515 3.487 4.503 6.987 4.503 3.052 0 6.339-2.028 7.614-4.698.684-1.432.627-3.859-.124-5.318-.327-.633-.454-1.065-.282-.96.688.426 1.303 2.387 1.309 4.172.01 3.058-1.429 5.109-4.72 6.727-1.928.947-4.845 1.103-6.916.37zm-1.318-4.46c-.807-.406-1.822-1.563-2.216-2.526-.094-.23-.208-.207-.41.079-.613.865-.278-1.243.42-2.641 1.127-2.264 3.768-4.503 5.31-4.503.686 0 2.41.923 3.282 1.759 2.535 2.429.658 6.886-3.372 8.005-1.42.394-1.944.364-3.014-.173zm10.558-7.938l-.641-.727.727.641c.4.353.728.68.728.728 0 .207-.214.039-.814-.642zm16.557-27.037c-1.441-.352-2.906-1.27-4.152-2.602-2.496-2.668-3.672-6.244-3.624-11.016l.03-2.935.35 2.714c.883 6.873 3.28 10.909 7.665 12.907 1.089.496 1.98.965 1.98 1.041 0 .19-1.28.128-2.25-.109zm9.922-1.101c0-.16.792-1.143 1.76-2.183 3.47-3.726 5.253-7.264 5.572-11.05.168-2.008-.059-3.925-.545-4.59-.313-.427-.444-.411-2.04.258-.937.392-2.501 1.242-3.475 1.887-2.845 1.884-4.233 3.66-5.753 7.36l-.322.784-.8-1.666c-1.573-3.278-5.596-6.664-9.472-7.97-.872-.293-1.695-.503-1.828-.466-.133.037-.284-.051-.335-.197-.16-.457 1.056-.453 2.493.01 3.596 1.157 7.14 3.793 8.66 6.441.509.887 1.044 1.614 1.19 1.615.145.001.494-.563.775-1.254 1.132-2.786 5.561-6.205 9.524-7.35 1.501-.433 1.582-.432 1.92.031.945 1.292 1.395 5.239.894 7.848-.61 3.189-3.175 7.282-6.005 9.588-1.436 1.17-2.213 1.487-2.213.904zm-89.358-17.62c.257-.066.614-.062.793.01.18.073-.031.128-.468.123-.436-.005-.583-.065-.325-.132zm-1.46-.256c.181-.073.479-.073.66 0 .183.074.034.134-.33.134s-.512-.06-.33-.134zm4.63-25.142c.254-.067.671-.067.926 0 .254.066.046.12-.463.12-.51 0-.718-.054-.463-.12zm20.836-3.787l-1.72-.173 1.72-.02c.945-.01 2.017.077 2.38.193l.662.212-.661-.02c-.364-.01-1.436-.096-2.381-.192z" id="path179" fill="#232f39"/></g><g transform="translate(29.914 105.192) scale(3.27672)" id="mainFragment"><style id="style773"></style><g transform="translate(3 2)" id="g799" stroke="#000"><g class="antenna" transform="translate(13)" id="g779"><path class="pole" id="line775" stroke-width="2" d="M0 0v3"/><circle class="tip" r="2" id="circle777" stroke="none"/></g><g class="head" id="g783"><path class="face-outline" d="M3 3h20a2 2 0 0 1 2 2v6h1a1 1 0 0 1 1 1v6a1 1 0 0 1-1 1h-1v6a2 2 0 0 1-2 2H3a2 2 0 0 1-2-2v-6H0a1 1 0 0 1-1-1v-6a1 1 0 0 1 1-1h1V5a2 2 0 0 1 2-2" id="path781" fill="none" stroke-width="2" stroke-linejoin="round"/></g><g class="features" transform="translate(1 -2)" id="g797"><g class="eyes" transform="translate(4 15)" id="g789"><path class="closed-eye" d="M0 0c1-1.3 3-1.3 4 0" id="path785" fill="none" stroke-width="2" stroke-linecap="round"/><path class="closed-eye" d="M12 0c1-1.3 3-1.3 4 0" id="path787" fill="none" stroke-width="2" stroke-linecap="round"/></g><path class="nose" d="M12 16l2 5h-4z" id="path791" stroke="none" stroke-width="1" stroke-linejoin="round"/><g class="mouth" transform="translate(6 23)" id="g795"><path class="lips" d="M0 0c2 2 10 2 12 0" id="path793" fill="none" stroke-width="2" stroke-linecap="round"/></g></g></g></g><g id="layer1-9" transform="matrix(.15318 0 0 .15318 149.298 30.802)" fill="#d40000"><path id="path3940" d="M200 743.79c-6.285-16.939-16.519-32.399-29.657-44.801-14.846-14.013-33.87-24.216-54.214-25.915-22.184-1.853-44.553 6.636-61.698 20.835-11.539 9.556-20.907 21.578-28.229 34.649-12.502 22.32-19.129 48.956-13.038 73.804 3.363 13.719 10.423 26.303 18.882 37.615 12.522 16.743 28.098 30.911 43.401 45.156 19.592 18.237 38.931 36.809 56.523 56.981a454.6 454.6 0 0 1 68.028 103.82h.436a454.644 454.644 0 0 1 68.028-103.82c17.593-20.172 36.932-38.745 56.523-56.981 15.304-14.245 30.88-28.413 43.401-45.156 8.46-11.311 15.519-23.896 18.882-37.615 6.091-24.847-.535-51.484-13.038-73.804-7.322-13.071-16.69-25.093-28.229-34.649-17.145-14.198-39.514-22.688-61.698-20.835-20.344 1.7-39.368 11.902-54.214 25.915-13.139 12.402-23.373 27.861-29.657 44.801h-.436" stroke="red" stroke-width="1"/></g></g></g></svg>