<svg xmlns="http://www.w3.org/2000/svg" viewBox="0 0 32 32"><title>Feram Profile Image</title><style>#bot{stroke:#646464;fill:#646464}#bot .antenna .tip{stroke:none}#bot .antenna .pole{stroke-width:2}#bot .face-outline{fill:none;stroke-linejoin:round;stroke-width:2}#bot .closed-eye{fill:none;stroke-linecap:round;stroke-width:2}#bot .nose{stroke:none;stroke-linejoin:round;stroke-width:1}#bot .lips{fill:none;stroke-linecap:round;stroke-width:2}</style><g id="bot"><g class="antenna" transform="translate(16 2)"><path class="pole" d="M0 0v3"/><circle class="tip" r="2"/></g><g class="head"><path class="face-outline" d="M3 3h20a2 2 0 0 1 2 2v6h1a1 1 0 0 1 1 1v6a1 1 0 0 1-1 1h-1v6a2 2 0 0 1-2 2H3a2 2 0 0 1-2-2v-6H0a1 1 0 0 1-1-1v-6a1 1 0 0 1 1-1h1V5a2 2 0 0 1 2-2" transform="translate(3 2)"/><g class="features"><g class="eyes"><path class="closed-eye" d="M0 0c1-1.3 3-1.3 4 0M12 0c1-1.3 3-1.3 4 0" transform="translate(8 15)"/></g><path class="nose" d="M12 16l2 5h-4z" transform="translate(4)"/><g class="mouth"><path class="lips" d="M0 0c2 2 10 2 12 0" transform="translate(10 23)"/></g></g></g></g></svg>