<svg xmlns="http://www.w3.org/2000/svg" viewBox="0 0 32 32"><g stroke="#4d4d4d" fill="#4d4d4d"><g class="antenna" transform="translate(16 2)"><path class="pole" stroke-width="2" d="M0 0v3"/><circle class="tip" r="2" stroke="none"/></g><g class="head"><path class="face-outline" d="M6 5h20a2 2 0 012 2v6h1a1 1 0 011 1v6a1 1 0 01-1 1h-1v6a2 2 0 01-2 2H6a2 2 0 01-2-2v-6H3a1 1 0 01-1-1v-6a1 1 0 011-1h1V7a2 2 0 012-2" fill="none" stroke-linejoin="round" stroke-width="2"/><g class="features"><g class="eyes" fill="none" stroke-linecap="round" stroke-width="2"><path class="closed-eye" d="M8 15c1-1.3 3-1.3 4 0M20 15c1-1.3 3-1.3 4 0"/></g><path class="nose" d="M16 16l2 5h-4z" stroke="none"/><g class="mouth"><path class="lips" d="M10 23c2 2 10 2 12 0" fill="none" stroke-linecap="round" stroke-width="2"/></g></g></g></g></svg>