<svg xmlns="http://www.w3.org/2000/svg" viewBox="0 0 80 80"><style>#bot .ear{fill:#f1b4b4;stroke:#b22222;stroke-width:.5}#bot .closed-eye{stroke:#696969;stroke-width:2;stroke-linecap:round;fill:none}#bot .mouth .teeth{stroke:#e6e6e6;stroke-width:6;fill:none}</style><g id="bot" transform="translate(10 15)"><g class="antenna" transform="translate(30 -7)"><path class="pole" style="stroke:#696969;stroke-width:5" d="M0 0v8"/><circle class="tip" r="5" style="fill:#f1b4b4;stroke:#b22222;stroke-width:.5"/></g><rect class="ear" x="-5" y="20" width="10" height="20" rx="2"/><rect class="ear" x="55" y="20" width="10" height="20" rx="2"/><g class="head"><rect class="face" width="60" height="60" rx="5" ry="5" style="fill:#a9a9a9;stroke:#696969;stroke-width:2"/><path class="shadow" d="M55 35v20H5z" style="fill:#a0a0a0;stroke:#a0a0a0;stroke-width:3;stroke-linecap:round;stroke-linejoin:round"/></g><g class="eyes"><path class="closed-eye" d="M10 0c2-4 8-4 10 0M40 0c2-4 8-4 10 0" transform="translate(0 25)"/></g><path class="nose" d="m30 26 5 12H25z" style="fill:#f1b4b4;stroke:#e26969;stroke-linejoin:round;stroke-width:.5;box-shadow:1px 1px 1px #000"/><g class="mouth" transform="translate(15 45)"><path class="lips" d="M0 0c5 5 25 5 30 0" style="stroke:#696969;stroke-width:7;stroke-linecap:round;fill:none"/><path class="teeth" id="teeth1" d="M0 0c5 5 25 5 30 0" style="stroke-dasharray:5,.4"/><path class="teeth" id="teeth2" d="M0 0c5 5 25 5 30 0" style="stroke-linecap:round;stroke-dasharray:.4,31"/></g></g></svg>