<svg xmlns="http://www.w3.org/2000/svg" xmlns:xlink="http://www.w3.org/1999/xlink" viewBox="0 0 141.73 141.73"><defs><linearGradient id="linear-gradient" x1="13.02" y1="86.11" x2="47.1" y2="86.11" gradientUnits="userSpaceOnUse"><stop offset="0" stop-color="#708ac2"/><stop offset="1" stop-color="#415ea1"/></linearGradient><linearGradient id="linear-gradient-2" x1="59.26" y1="83.4" x2="75.95" y2="83.4" xlink:href="#linear-gradient"/><linearGradient id="linear-gradient-3" x1="87.37" y1="84.83" x2="119.52" y2="84.83" xlink:href="#linear-gradient"/><style>.cls-1,.cls-4{fill:#c2c4c6}.cls-2{fill:#fff}.cls-4{opacity:.3}.cls-5{fill:#a4acb1}</style></defs><path class="cls-1" d="M138.68 59.36a55.71 55.71 0 0 0-10.35-2C101.51 54.73 76.95 71.9 67.2 97.63a7.76 7.76 0 0 1 .63 1.7C77.06 73.41 101.49 56 128.2 58.6a54.29 54.29 0 0 1 10.14 2 .6.6 0 0 0 .73-.45.63.63 0 0 0-.39-.79zM139.05 28.95a88.88 88.88 0 0 0-100.9 62.51 10.72 10.72 0 0 1 1.19 2.27 87.07 87.07 0 0 1 99.4-63 .88.88 0 0 0 .31-1.73zM121.86 118.08a9.77 9.77 0 1 1-9.77-9.76 9.77 9.77 0 0 1 9.77 9.76z"/><path class="cls-2" d="m103.96 121.66 4.56-8h1.16l1.54 8h-1.14l-.41-2h-3.42l-1.16 2zm2.75-2.89h2.78l-.74-3.59zM118.55 121.34a10 10 0 0 1-3 .52 2.8 2.8 0 0 1-2.07-.79 3 3 0 0 1-.8-2.24 5.57 5.57 0 0 1 .66-2.62 5.28 5.28 0 0 1 1.73-2 4.54 4.54 0 0 1 2.57-.73 11.54 11.54 0 0 1 2.27.28l-.19 1a8 8 0 0 0-2.23-.4 3 3 0 0 0-1.81.57 4.18 4.18 0 0 0-1.29 1.66 5.27 5.27 0 0 0-.51 2.25 2.37 2.37 0 0 0 .51 1.57 2.1 2.1 0 0 0 1.67.6 4.87 4.87 0 0 0 1.5-.27l.49-2.46h1.12z"/><path style="fill:none" d="M0 0h141.73v141.73H0z"/><path class="cls-4" d="M6.62 139.88a1 1 0 0 0 .79-1.17 119.37 119.37 0 0 1-2.13-22.4c0-2 .07-4 .16-5.92-.67.11-1.35.21-2 .33-.08 1.86-.14 3.72-.14 5.59a120.73 120.73 0 0 0 2.17 22.77 1 1 0 0 0 1.15.8z"/><path class="cls-1" d="M88.21 2.53a1 1 0 0 0-1.25-.65A120.1 120.1 0 0 0 3.42 110.72c.67-.12 1.35-.22 2-.33A117.59 117.59 0 0 1 87.56 3.83a1 1 0 0 0 .65-1.3z"/><path class="cls-4" d="M39.24 138.67q-.9-3.43-1.52-6.93c-.19-1-.36-2.1-.51-3.16 0-.18-.05-.36-.08-.54-.16-1.18-.3-2.37-.41-3.57v-.68c-.09-1-.15-1.93-.2-2.9v-1c-.05-1.16-.08-2.32-.08-3.49v-.14c0-1.11 0-2.21.07-3.31v-.72c.06-1.11.12-2.22.22-3.31.06-.75.13-1.49.21-2.23 0-.37.11-.73.15-1.1-.29.38-.62.76-1 1.16l-.45.47-.15.15h-.39c0 .48-.08 1-.13 1.45v.4c-.07.84-.13 1.69-.17 2.54 0 .58 0 1.17-.06 1.76h.3l-.36 1.79v1.06c0 1.16 0 2.32.08 3.48v1.09c.05.88.1 1.77.18 2.65 0 .33.05.65.08 1 .1 1.15.23 2.3.38 3.45 0 .23.07.46.11.7.13 1 .28 1.91.44 2.85 0 .16.05.32.08.48.42 2.37.93 4.72 1.55 7a.874.874 0 0 0 1.69-.45zM70.47 138.6a58.5 58.5 0 0 1-2-5.51c-.11-.36-.22-.72-.32-1.08-.15-.51-.28-1-.41-1.53 0-.21-.11-.41-.16-.61a58.87 58.87 0 0 1-1.34-8.18l-.18.93h-1.23a59.36 59.36 0 0 0 1.29 7.54l.06.22c.16.66.33 1.32.51 2l.15.48c.12.42.23.83.36 1.24a61.8 61.8 0 0 0 1.88 5.12.75.75 0 0 0 1 .4.76.76 0 0 0 .39-1.02zM66.09 113c0-.59.07-1.18.12-1.76.14-1.57.36-3.13.62-4.66h-1.51c-.24 1.42-.43 2.85-.57 4.3v.97c0 .63-.1 1.27-.13 1.91 0 .86-.06 1.72-.06 2.59s0 1.84.08 2.76l1.21-6.07z"/><path class="cls-5" d="m23.36 122.25 1.76-8.87h5l-.19 1h-3.74l-.59 3h3l-.19.93h-3l-.8 4zM33.68 122.25l.48-2.43a7.66 7.66 0 0 1-1.51 1.87 2.48 2.48 0 0 1-1.55.7 1 1 0 0 1-.83-.44 1.69 1.69 0 0 1-.31-1 5 5 0 0 1 .61-2.29 5.25 5.25 0 0 1 1.5-1.86 3.19 3.19 0 0 1 1.9-.65h.42a4.4 4.4 0 0 1 .47.1h1.09l-1.19 6zm.74-3.73.28-1.38a2.31 2.31 0 0 0-.41-.16 2 2 0 0 0-.43-.05 2 2 0 0 0-1.26.52 3.71 3.71 0 0 0-1.07 1.5 4.66 4.66 0 0 0-.42 1.79.77.77 0 0 0 .11.42.37.37 0 0 0 .34.17c.51 0 1.47-.93 2.83-2.81zM37.07 122.25l1.19-6h1.09l-.49 2.45a6.6 6.6 0 0 1 1.33-1.75 2.48 2.48 0 0 1 1.67-.83.92.92 0 0 1 .63.24 1 1 0 0 1 .28.8 3.52 3.52 0 0 1-.09.72l-.16.82a7.19 7.19 0 0 1 1.41-1.83 2.38 2.38 0 0 1 1.59-.75.92.92 0 0 1 .63.24 1 1 0 0 1 .28.8 3.52 3.52 0 0 1-.09.72l-.86 4.34h-1.09l.87-4.35a1.12 1.12 0 0 0 0-.27.38.38 0 0 0-.1-.3.29.29 0 0 0-.21-.1q-.66 0-2.73 2.85l-.43 2.17h-1.06l.87-4.35a1.09 1.09 0 0 0 0-.28.4.4 0 0 0-.1-.29.29.29 0 0 0-.21-.1c-.43 0-1.27.85-2.51 2.56l-.22.29-.43 2.17zM47.75 122.25l1.19-6h1.08l-1.19 6zm1.41-7 .22-1.07h1.07l-.22 1.07zM51.17 122.25l1.73-8.68h1.09l-1.74 8.68zM54.68 124.43l1.36-2.17-1-6h1.11l.77 4.6 2.85-4.6h1l-5.09 8.17zM66.82 122.48a3.22 3.22 0 0 1-2.35-.88 3.37 3.37 0 0 1-.89-2.49 6.23 6.23 0 0 1 .7-2.89A5.92 5.92 0 0 1 66.2 114a4.74 4.74 0 0 1 2.76-.84 3.2 3.2 0 0 1 2.39.89 3.33 3.33 0 0 1 .88 2.47 6.22 6.22 0 0 1-.72 2.92 5.9 5.9 0 0 1-1.92 2.21 4.81 4.81 0 0 1-2.77.83zm.23-1a3.07 3.07 0 0 0 1.86-.63 4.71 4.71 0 0 0 1.42-1.85 5.66 5.66 0 0 0 .57-2.45 2.85 2.85 0 0 0-.56-1.79 2 2 0 0 0-1.61-.71 3.07 3.07 0 0 0-1.82.63 4.82 4.82 0 0 0-1.43 1.85 5.66 5.66 0 0 0-.57 2.45 2.72 2.72 0 0 0 .58 1.8 1.89 1.89 0 0 0 1.56.75zM72.85 124.43l1.46-7.33h-.89l.17-.82h.88l.06-.27a3.45 3.45 0 0 1 1.17-2 2.5 2.5 0 0 1 .71-.42 2.28 2.28 0 0 1 .86-.14 3.48 3.48 0 0 1 1 .16l-.17.86a2.23 2.23 0 0 0-1-.21 1.32 1.32 0 0 0-1 .46 3.16 3.16 0 0 0-.6 1.46v.11h1.65l-.17.82H75.4l-1.47 7.33zM77.32 124.43l1.46-7.33h-.89l.17-.82h.89v-.27a3.45 3.45 0 0 1 1.17-2 2.5 2.5 0 0 1 .71-.42 2.3 2.3 0 0 1 .87-.14 3.58 3.58 0 0 1 1 .16l-.18.86a2.2 2.2 0 0 0-1-.21 1.32 1.32 0 0 0-1 .46 3.16 3.16 0 0 0-.6 1.46v.11h1.76l-.17.82h-1.64l-1.46 7.33zM81.99 122.25l1.19-6h1.08l-1.19 6zm1.4-7 .23-1.07h1.06l-.22 1.07zM89.49 121.83a5.59 5.59 0 0 1-2.2.54 1.83 1.83 0 0 1-1.44-.55 2.18 2.18 0 0 1-.51-1.55 4.12 4.12 0 0 1 .53-2 4.39 4.39 0 0 1 1.39-1.54 3.18 3.18 0 0 1 1.8-.58 5.29 5.29 0 0 1 1.39.2l-.17.87a3.46 3.46 0 0 0-1.25-.26 2.15 2.15 0 0 0-1.23.4 3 3 0 0 0-.94 1.21 4 4 0 0 0-.36 1.66 1.22 1.22 0 0 0 .32 1 1.09 1.09 0 0 0 .78.3 2.76 2.76 0 0 0 .57-.08 6.12 6.12 0 0 0 .71-.21 5 5 0 0 0 .8-.41zM95.82 121.65a5.75 5.75 0 0 1-2.67.74 1.89 1.89 0 0 1-1.47-.56 2.11 2.11 0 0 1-.51-1.5 4.54 4.54 0 0 1 .47-2 4.42 4.42 0 0 1 1.28-1.58 2.86 2.86 0 0 1 1.76-.62 1.45 1.45 0 0 1 1 .31 1.1 1.1 0 0 1 .36.88 2 2 0 0 1-.44 1.25 3.19 3.19 0 0 1-1.28 1 6 6 0 0 1-2.07.5 1.61 1.61 0 0 0 .33 1.12 1.12 1.12 0 0 0 .86.36 4.06 4.06 0 0 0 1.14-.23 5.79 5.79 0 0 0 1.42-.69zm-3.46-2.42a5.14 5.14 0 0 0 1.51-.32 1.92 1.92 0 0 0 .83-.6 1.13 1.13 0 0 0 .31-.72.61.61 0 0 0-.18-.41.63.63 0 0 0-.46-.19 1.43 1.43 0 0 0-.76.25 2.38 2.38 0 0 0-.57.5 3.17 3.17 0 0 0-.36.54 4.26 4.26 0 0 0-.32.95z"/><path d="M35.49 104.65a26.7 26.7 0 0 0 8.34-10.56 32.92 32.92 0 0 0 3.27-14.22A19.21 19.21 0 0 0 45.51 72a11.34 11.34 0 0 0-4.88-5.49 14.82 14.82 0 0 0-7.51-1.88A16.14 16.14 0 0 0 24.53 67a17.24 17.24 0 0 0-6.22 6.66 17.84 17.84 0 0 0-2.31 8.6 9.55 9.55 0 0 0 3.36 7.5 12.21 12.21 0 0 0 8.34 2.94 16.16 16.16 0 0 0 9-2.89 24.86 24.86 0 0 1-4.93 9.67 10.09 10.09 0 0 1-7.93 3.61 16.28 16.28 0 0 1-2.6-.21 20.8 20.8 0 0 1-2.95-.74 42.16 42.16 0 0 1-4.05-1.63L13 106.68a31.77 31.77 0 0 0 3.38.89c5.49-.75 11.3-1.38 17.38-1.85a18.83 18.83 0 0 0 1.73-1.07zM36 85a8.92 8.92 0 0 1-6 2.34 5.25 5.25 0 0 1-4.33-1.87 7.55 7.55 0 0 1-1.52-4.92 12.81 12.81 0 0 1 1.16-5.28 10.06 10.06 0 0 1 3-4 6.64 6.64 0 0 1 4.22-1.42 5.46 5.46 0 0 1 4.45 2 8.67 8.67 0 0 1 1.68 5.68Q38.68 82.69 36 85z" transform="translate(-.32 .83)" style="fill:url(#linear-gradient)"/><path class="cls-2" d="M16.06 108.91h-.08a33.81 33.81 0 0 1-3.44-.9l-.42-.14 1.45-7.23.57.26a39.18 39.18 0 0 0 4 1.61 19.84 19.84 0 0 0 2.87.73 16.36 16.36 0 0 0 2.52.2 9.7 9.7 0 0 0 7.56-3.44 23.38 23.38 0 0 0 4.43-8.22 16.29 16.29 0 0 1-8.15 2.27 12.73 12.73 0 0 1-8.69-3.09 10 10 0 0 1-3.53-7.87 18.31 18.31 0 0 1 2.38-8.8 17.82 17.82 0 0 1 6.4-6.84 16.63 16.63 0 0 1 8.85-2.46 15.49 15.49 0 0 1 7.76 1.94 12 12 0 0 1 5.14 5.73 19.82 19.82 0 0 1 1.63 8 33.64 33.64 0 0 1-3.32 14.44 27.22 27.22 0 0 1-8.5 10.74 16.87 16.87 0 0 1-1.75 1.1l-.21.06c-6 .48-11.83 1.1-17.35 1.86zm-2.78-1.74c.84.26 1.75.5 2.82.72 5.48-.75 11.27-1.36 17.21-1.83a17.52 17.52 0 0 0 1.57-1 26.33 26.33 0 0 0 8.18-10.36 32.56 32.56 0 0 0 3.22-14 18.93 18.93 0 0 0-1.54-7.64 11 11 0 0 0-4.68-5.23 14.48 14.48 0 0 0-7.26-1.81 15.77 15.77 0 0 0-8.33 2.31 16.84 16.84 0 0 0-6 6.47 17.31 17.31 0 0 0-2.26 8.32 9 9 0 0 0 3.19 7.12 11.78 11.78 0 0 0 8 2.82 15.68 15.68 0 0 0 8.74-2.81l1.14-.74-.41 1.32a25.63 25.63 0 0 1-5 9.86 10.64 10.64 0 0 1-8.31 3.78 16.15 16.15 0 0 1-2.68-.22 20.5 20.5 0 0 1-3-.76 37.49 37.49 0 0 1-3.53-1.39zm16.4-18.5a5.78 5.78 0 0 1-4.72-2 8.08 8.08 0 0 1-1.63-5.24 13.49 13.49 0 0 1 1.2-5.49 10.84 10.84 0 0 1 3.15-4.24 7.22 7.22 0 0 1 4.53-1.52 6 6 0 0 1 4.84 2.22 9.19 9.19 0 0 1 1.79 6c0 3.54-1 6.17-2.89 7.82a9.43 9.43 0 0 1-6.27 2.45zm2.51-17.49a6.26 6.26 0 0 0-3.92 1.31 9.76 9.76 0 0 0-2.83 3.81 12.51 12.51 0 0 0-1.11 5.08 7.14 7.14 0 0 0 1.41 4.61 4.75 4.75 0 0 0 3.94 1.68 8.45 8.45 0 0 0 5.6-2.21c1.68-1.45 2.54-3.82 2.54-7.06a8.32 8.32 0 0 0-1.56-5.37 5 5 0 0 0-4.03-1.85z"/><path style="fill:url(#linear-gradient-2)" d="M75.95 62.36 61.4 63.57l-.9 4.52h6.01l-7.25 36.35h8.3l8.39-42.08z"/><path class="cls-2" d="M67.97 104.94h-9.29l7.25-36.35h-6l1.09-5.49 15.55-1.27zm-8.1-1h7.28l8.18-41-13.52 1.09-.7 3.56h6z"/><path d="M97 101.51a23.87 23.87 0 0 1 .92-2.59 47.29 47.29 0 0 1 3.76-7.19 120 120 0 0 1 13.84-17.8c.58-.63 1.48-1.58 2.69-2.83l1.3-6.57H91.3L90 71.26h21l-7 7.72q-5.34 5.92-8.59 10.34a59.81 59.81 0 0 0-5.35 8.5 28 28 0 0 0-2.36 6.37c2.91.28 5.76.6 8.53.94a32.61 32.61 0 0 1 .77-3.62z" transform="translate(-.32 .83)" style="fill:url(#linear-gradient-3)"/><path class="cls-2" d="m96.37 106.52-.48-.06c-2.76-.35-5.62-.66-8.51-.94h-.57l.13-.56a28.58 28.58 0 0 1 2.4-6.48 62.71 62.71 0 0 1 5.39-8.65c2.17-2.94 5.07-6.43 8.63-10.37l6.23-6.89H89.02l1.55-7.74h29.23l-1.43 7.31-.11.1c-1.21 1.25-2.1 2.19-2.68 2.83a119.06 119.06 0 0 0-13.79 17.76 46.69 46.69 0 0 0-3.72 7.11 25.48 25.48 0 0 0-.9 2.55 30.56 30.56 0 0 0-.72 3.55zm-8.32-1.94c2.54.25 5 .53 7.49.83a28.06 28.06 0 0 1 .67-3.21 25 25 0 0 1 .94-2.65 49 49 0 0 1 3.79-7.25 121.18 121.18 0 0 1 13.9-17.88c.56-.62 1.43-1.53 2.6-2.74l1.15-5.85h-27.2l-1.15 5.73h21.6l-7.74 8.56c-3.53 3.92-6.41 7.38-8.56 10.29a61.37 61.37 0 0 0-5.31 8.44 28.41 28.41 0 0 0-2.18 5.73z"/></svg>