<svg xmlns="http://www.w3.org/2000/svg" xmlns:xlink="http://www.w3.org/1999/xlink" width="175.323" height="39.085"><defs><path id="a" d="M0 0h175.323v39.085H0z"/></defs><clipPath id="b"><use xlink:href="#a" overflow="visible"/></clipPath><path clip-path="url(#b)" fill="#36363B" d="M62.471 2.547L61.272 4.07c-1.349-1.373-3.247-2.197-5.17-2.197-3.946 0-7.117 3.047-7.117 6.892 0 3.821 3.171 6.893 7.117 6.893 1.923 0 3.796-.799 5.17-2.098l1.223 1.374c-1.723 1.623-4.071 2.697-6.493 2.697-5.044 0-9.04-3.921-9.04-8.866C46.963 3.871 51.009 0 56.078 0c2.398 0 4.72.974 6.393 2.547M66.042 8.79c0 3.846 3.246 6.917 7.142 6.917s7.092-3.071 7.092-6.917-3.196-6.892-7.092-6.892-7.142 3.046-7.142 6.892m16.282 0c0 4.92-4.046 8.84-9.14 8.84-5.119 0-9.165-3.92-9.165-8.84 0-4.945 4.046-8.79 9.165-8.79 5.094 0 9.14 3.87 9.14 8.79"/><path fill="#36363B" d="M101.803 17.53l-.026-14.408-6.367 12.561h-1.198L87.868 3.122V17.53h-1.897V.049h2.471l6.394 12.586L101.204.049h2.446V17.53z"/><defs><path id="c" d="M0 0h175.323v39.085H0z"/></defs><clipPath id="d"><use xlink:href="#c" overflow="visible"/></clipPath><path clip-path="url(#d)" fill="#36363B" d="M110.968 10.089h4.495c3.147 0 4.97-1.399 4.97-4.121 0-2.647-1.822-3.995-4.97-3.995h-4.495v8.116zM115.538.05c4.319 0 6.816 2.148 6.816 5.868 0 3.871-2.497 6.094-6.816 6.094h-4.57v5.519h-1.998V.05h6.568z"/><path fill="#36363B" d="M130.972 2.322l-3.896 8.865h7.842l-3.946-8.865zm-4.745 10.788l-1.948 4.42h-2.122L129.999.049h2.071l7.817 17.481h-2.173l-1.947-4.42h-9.54zM155.12 17.53L144.632 3.496V17.53h-1.998V.049h2.072l10.489 14.06V.049h1.973V17.53zM168.681 17.63h-1.973v-5.918L159.94.149h2.073l5.669 9.116 5.593-9.116h2.048l-6.642 11.488z"/><path fill="#00B6BE" d="M61.996 38.86l-.025-10.364-3.521 8.641h-3.396l-3.522-8.641V38.86h-4.57V21.354h5.569l4.221 9.69 4.22-9.69h5.569V38.86zM75.432 25.35v2.747h8.266v3.996h-8.266v2.772h9.365v3.994H70.238V21.354h14.309v3.996z"/><g><defs><path id="e" d="M0 0h175.323v39.085H0z"/></defs><clipPath id="f"><use xlink:href="#e" overflow="visible"/></clipPath><path clip-path="url(#f)" fill="#00B6BE" d="M93.237 34.789h2.622c2.373 0 3.972-1.848 3.972-4.645 0-2.822-1.724-4.694-4.221-4.694h-2.373v9.339zm2.473-13.435c5.669 0 9.415 3.471 9.415 8.739 0 5.271-3.821 8.767-9.59 8.767h-7.491V21.354h7.666z"/></g><path fill="#00B6BE" d="M107.822 21.354h5.193v17.507h-5.193z"/><g><defs><path id="g" d="M0 0h175.323v39.085H0z"/></defs><clipPath id="h"><use xlink:href="#g" overflow="visible"/></clipPath><path clip-path="url(#h)" fill="#00B6BE" d="M132.369 24.301l-2.996 3.546c-1.099-1.397-2.723-2.321-4.171-2.321-2.371 0-4.171 1.923-4.171 4.494 0 2.572 1.8 4.521 4.171 4.521 1.35 0 2.973-.799 4.171-2.023l2.996 3.197c-1.897 2.047-4.769 3.371-7.417 3.371-5.318 0-9.239-3.846-9.239-9.015 0-5.096 3.996-8.866 9.415-8.866 2.646-.001 5.469 1.198 7.241 3.096M149.201 23.152l-1.923 3.996c-1.798-1.024-4.345-1.948-5.819-1.948-.874 0-1.448.3-1.448.949 0 2.571 9.141 1.049 9.141 7.367 0 3.721-3.296 5.493-7.217 5.493-2.973 0-6.219-1.049-8.416-2.771l1.947-3.946c1.799 1.524 4.721 2.672 6.519 2.672 1.099 0 1.798-.374 1.798-1.173 0-2.647-9.14-.974-9.14-7.143 0-3.371 2.872-5.52 7.241-5.52 2.673.001 5.419.801 7.317 2.024M32.517 38.878h1.222a4.973 4.973 0 004.959-4.959v-1.552h-6.181v6.511zm-9.49-25.269v8.055c0 .794-.64 1.435-1.433 1.435h-8.056v6.399h8.056c.793 0 1.434.64 1.434 1.435v7.945h6.62v-7.945c0-.795.639-1.435 1.434-1.435h7.616v-6.399h-7.616a1.432 1.432 0 01-1.434-1.435v-8.055h-6.621zm15.671 6.62V4.958C38.698 2.231 36.466 0 33.739 0H4.959C2.232 0 0 2.231 0 4.958v28.961a4.973 4.973 0 004.959 4.959h15.2v-6.511h-8.055c-.795 0-1.434-.64-1.434-1.435v-9.269c0-.795.639-1.435 1.434-1.435h8.055v-8.055c0-.794.64-1.434 1.435-1.434h9.488c.794 0 1.435.64 1.435 1.434v8.055h6.181z"/></g></svg>