<svg xmlns="http://www.w3.org/2000/svg" viewBox="0 0 425.2 137.5"><style>.st0{fill-rule:evenodd;clip-rule:evenodd;fill:#000}</style><path class="st0" d="M23.5 118.2c10.2.4 20.5 1 30.7 1.2 9.8.2 19.6 0 29.4-.1 11.1-.1 22.1-.3 33.2-1.2 12.7-1 25.4-2.8 38.1-4.2l-13.7 15.8-3.3-8.2c-17.3 1-34.6 2-52.9 1.4-10.4-.3-20.3-.7-31.4-1.7-4.5-.5-19.9-1.3-30.1-3zm110-4.9c-4.7-9.1-9.2-18.3-14.2-27.3-4.7-8.6-9.8-17-14.7-25.5-5.6-9.6-11.3-19.1-17.5-28.2-7.2-10.5-15-20.7-22.5-31l20.5 4.1-5.5 6.9C89 26.9 98.5 41.4 107 57.6c4.8 9.2 9.4 18 14.1 28.1 1.9 4.1 8.8 17.8 12.4 27.6zM73.4 19.8c-5.6 8.6-11.4 17-16.8 25.7-5.2 8.3-10.1 16.8-15.1 25.3-5.6 9.5-11.1 19.2-16 29.1-5.6 11.4-10.7 23.2-16 34.8L3 114.8l8.7 1.4c8.1-15.3 16.1-30.7 26-46.1 5.6-8.7 11-17 17.6-26 2.7-3.7 11.3-16.5 18.1-24.3zM40.6 87.9h5.9v15.5h-5.9V87.9zm63.2 4.7h-7.5v6.1h9.7c2 0 2.3-.4 2.3-3.1 0-2.1-.3-3.1-2.3-3.1h-2.2v.1zm-13.7 19.3v-24H109c2.9 0 5.3 2.4 5.3 5.3v5.2c0 2.9-2.4 5.2-5.3 5.2H96.3v8.4h-6.2v-.1zm-9.3-24c2.8 0 5 2.3 5 5.1v10.4h-5.9v-8.6c-.2-1.2-.5-2.2-3.2-2.2h-5.5v10.7l-6 .1V92.6h-8.7v10.7h-5.9V87.9h30.2zM182.4 97v14h3.2v-10.5h7.1c1.5 0 2.7 0 4-.4 1.8-.6 3-1.7 3.7-3.2h-4.2c-1 .6-2.1.6-3.7.6h-6.9V97h-3.2zm22.7 0l-5.3 14h3.5l2.8-7.6h9.4l2.7 7.6h3.5l-5.1-14h-3.3l1.3 3.7h-7.4l1.3-3.7h-3.4zm19.7 0v14h3.2v-10.5h6.4l6.7 10.5h3.9l-6.9-10.7c.9-.2 3.7-.6 5.1-3.3h-4.3c-.4.2-.8.4-1.3.5-1 .2-2 .2-3 .2H228V97h-3.2zm28.3 0v14h3.3V97h-3.3zm14 0v14h3.1l-.2-14h-2.9zm6.9 0l9.4 14h3V97h-2.9l.1 9.1-6.2-9.1H274zm19.3 0v14h17.4v-2.9h-14.3v-8.4h12V97h-15.1zm22.6 0v14h3.2v-10.5h6.4l6.7 10.5h3.9l-6.9-10.7c.9-.2 3.7-.6 5.1-3.3H330c-.4.2-.8.4-1.3.5-1 .2-2 .2-3 .2h-6.5V97h-3.3z"/><path class="st0" d="M185.6 97v-7.9h7.6c1.2 0 2.4 0 3.5.9 1.2 1 1.3 2.3 1.3 3.1 0 1.2-.3 2.4-1.2 3.3-.2.2-.4.4-.6.5h4.2c.6-1.2.8-2.5.8-3.7 0-2.9-1.3-5.6-4.2-6.6-1.3-.4-2.7-.4-3.9-.4h-10.7V97h3.2zm22.9 0l2.4-6.6 2.3 6.6h3.3l-3.9-10.7h-3.4L205.1 97h3.4zm19.5 0v-8h6.4c1.9 0 3.5 0 4.8 1 1.4 1.2 1.5 2.8 1.5 3.5 0 1.4-.5 2.7-1.8 3.5h4.3c.5-.9.8-2 .8-3.5 0-2.3-.8-4.3-2.6-5.7-1.9-1.5-4-1.5-7.4-1.5h-9.2V97h3.2zm28.5 0v-7.8h7.4v-2.9h-18.1v2.9h7.4V97h3.3zm13.4 0l-.1-6.1L274 97h3.4l-7.2-10.7h-3.1V97h2.8zm16.5 0V86.3h-3l.1 10.7h2.9zm22.1 0v-.2h-12v-7.6h13.8v-2.9h-17V97h15.2zm10.6 0v-8h6.4c1.9 0 3.5 0 4.8 1 1.4 1.2 1.5 2.8 1.5 3.5 0 1.4-.5 2.7-1.8 3.5h4.3c.5-.9.8-2 .8-3.5 0-2.3-.8-4.3-2.6-5.7-1.9-1.5-4-1.5-7.4-1.5h-9.2V97h3.2zM374 36.8v-2.9h-12v-7.6h13.8v-2.9h-17V48h17.4v-2.9H362v-8.4h12v.1zM345.4 44l-6.5-20.6h-3.5l8.3 24.7h3.3l8.7-24.7h-3.5L345.4 44zm-16.1-20.7V48h3.3V23.3h-3.3zm-2.8 2.9v-2.9h-18.1v2.9h7.4V48h3.3V26.2h7.4zM296 37.7l3.8-10.3 3.6 10.3H296zM307 48h3.5l-9-24.7h-3.4L288.7 48h3.5l2.8-7.6h9.4L307 48zm-27.9-4l-6.5-20.6H269l8.3 24.7h3.3l8.7-24.7h-3.5L279.1 44zM264 35.5c0 5.1-2.2 10.6-8.8 10.6-6.4 0-8.9-5.2-8.9-10.4 0-5.6 2.7-10.4 8.9-10.4 5.7.1 8.8 4.2 8.8 10.2zm3.6-.1c0-8-5.5-12.7-12.4-12.7-6.1 0-12.4 3.8-12.4 13 0 7.7 4.8 13 12.3 13 8.2 0 12.5-5.8 12.5-13.3zm-33.1-12.1l.1 19.8-13.4-19.8h-3.1V48h3.1l-.2-20 13.5 20h3V23.3h-3zm-26.2 0l.1 19.8L195 23.3h-3V48h3.1l-.3-20 13.5 20h3V23.3h-3zm-26.2 0V48h3.3V23.3h-3.3zm243.2 31.5h-18.1V59h6.7v20.5h4.6V59h6.8v-4.2zm-25.8 17.5l-10.9-17.4h-4.2v24.7h4.5l-.3-17.3 10.8 17.3h4V54.8H399l.5 17.5zm-20.9-13.4v-4.1H361v24.7h18.4v-4.2h-13.9v-6.6h11.9v-4h-11.9v-5.8h13.1zm-31.3-4.1l-4.7 18.3-4.8-18.3h-6.7v24.7h4.5l-.5-20.3 5.3 20.3h4.2l5.3-20.3-.4 20.3h4.5V54.8h-6.7zm-21.9 4.1v-4.1h-17.6v24.7h18.4v-4.2h-13.9v-6.6h11.9v-4h-11.9v-5.8h13.1zM291 66v4.1h6.2c-.4 4.4-3.5 5.7-6.1 5.7-4 0-7-3.1-7-8.5 0-4.9 2.3-8.9 6.9-8.9 4.2 0 5.5 3.5 6 4.9l4.4-1.8c-1.5-4.1-5.3-7.3-10.4-7.3-6.8 0-11.9 5.5-11.9 13.2 0 6.6 4 12.7 11.6 12.7 2.1 0 4.5-.6 6.8-2.7v2.1h4V66H291zm-27.7 4.7l3.4-11.4 3.4 11.4h-6.8zm9.5 8.8h4.9l-8.4-24.7h-5.2l-8.3 24.7h4.9l1.4-4.8h9.3l1.4 4.8zm-24.1-7.2l-10.9-17.4h-4.2v24.7h4.5l-.3-17.3 10.8 17.3h4V54.8h-4.5l.6 17.5zM216 70.7l3.4-11.4 3.4 11.4H216zm9.5 8.8h4.9L222 54.8h-5.2l-8.3 24.7h4.9l1.4-4.8h9.3l1.4 4.8zm-26.8-24.7L194 73.1l-4.8-18.3h-6.7v24.7h4.5l-.5-20.3 5.3 20.3h4.2l5.3-20.3-.4 20.3h4.5V54.8h-6.7z"/></svg>