<svg xmlns="http://www.w3.org/2000/svg" viewBox="0 0 1680 1420"><g transform="matrix(1.16183 0 0 1.20954 -261.411 -62.896)"><path fill="none" d="M225 52h1446v1174H225z"/><clipPath id="a"><path d="M225 52h1446v1174H225z"/></clipPath><g clip-path="url(#a)"><g fill="#ff6766"><path d="M1281.957 52.827V209.91l380.435 269.111-380.435-426.195zM1281.957 311.603l380.435 214.958-380.435-56.22V311.603zM1281.957 581.127l380.435 19.842-380.435 137.243V581.127zM1281.957 820.888l380.435-177.754L1281.957 978.8V820.888z"/></g><g fill="#fe0000"><path d="M1281.957 52.827V209.91L224.139 414.121 1281.957 52.827zM1281.957 311.603v158.738L224.139 548.057l1057.818-236.454M1281.957 581.127v157.085L224.139 648.095l1057.818-66.968zM1281.957 820.888v157.911L224.139 749.786l1057.818 71.102z"/></g><path d="M502.54 1177.185v-147.99h65.414c16.569 0 28.619 1.446 35.935 3.926 7.53 2.687 13.556 7.441 17.86 14.262 4.518 6.82 6.885 14.675 6.885 23.356 0 11.161-3.443 20.256-10.328 27.49-6.67 7.234-16.784 11.781-30.34 13.641 6.67 3.72 12.265 7.855 16.568 12.402 4.304 4.547 10.329 12.608 17.645 23.976l18.936 28.937h-37.226l-22.594-32.244c-7.962-11.368-13.341-18.809-16.354-21.703-2.797-2.893-6.025-4.96-9.252-6.2-3.228-1.034-8.607-1.654-15.708-1.654h-6.24v61.8H502.54zm31.2-85.363h23.025c14.847 0 24.1-.62 27.973-1.86 3.658-1.24 6.455-3.308 8.607-6.201 2.152-2.894 3.228-6.614 3.228-11.162 0-4.96-1.507-8.887-4.304-11.988-2.582-3.1-6.67-4.96-11.62-5.787-2.582-.413-10.113-.62-22.593-.62H533.74v37.618zM658.365 1177.185v-147.99h30.986v65.727l62.832-65.728h41.96l-58.099 57.667 61.111 90.324h-40.238l-42.39-69.448-25.176 24.803v44.645h-30.986zM873.974 1177.185v-146.75h30.986v121.74h77.464v25.01h-108.45zM1068.891 1143.08l29.48 4.755c-3.874 10.334-9.899 18.188-17.86 23.562-8.177 5.58-18.506 8.268-30.77 8.268-19.367 0-33.784-6.2-43.036-18.396-7.317-9.714-10.975-21.909-10.975-36.79 0-17.776 4.734-31.83 14.417-41.752 9.683-10.128 21.949-15.088 36.796-15.088 16.569 0 29.695 5.167 39.162 15.708 9.683 10.541 14.202 26.663 13.772 48.366h-74.022c.216 8.474 2.583 15.088 7.316 19.635 4.52 4.754 10.114 7.028 17 7.028 4.518 0 8.392-1.24 11.62-3.514 3.227-2.48 5.594-6.407 7.1-11.781zm1.722-28.73c-.216-8.06-2.367-14.468-6.671-18.601-4.088-4.34-9.253-6.408-15.278-6.408-6.455 0-11.835 2.274-15.923 6.614-4.303 4.548-6.455 10.748-6.24 18.396h44.112zM1121.212 1184.212l33.783 3.927c.43 3.72 1.722 6.408 3.873 7.854 2.798 2.067 7.101 2.894 13.126 2.894 7.747 0 13.557-1.033 17.43-3.307 2.582-1.447 4.519-3.72 5.81-7.027 1.075-2.48 1.506-6.821 1.506-13.022v-15.708c-8.822 11.574-20.012 17.362-33.568 17.362-14.847 0-26.682-5.994-35.504-18.19-6.886-9.714-10.329-21.702-10.329-35.963 0-17.982 4.519-31.83 13.556-41.132 9.038-9.507 20.227-14.261 33.568-14.261 13.771 0 25.176 5.787 33.998 17.362v-15.089h27.758v96.318c0 12.608-1.076 22.116-3.227 28.317-2.152 6.2-5.38 11.16-9.253 14.675-3.873 3.72-9.038 6.407-15.708 8.474-6.455 2.067-14.847 2.894-24.746 2.894-18.935 0-32.276-3.1-40.238-9.302-7.962-6.2-11.835-14.054-11.835-23.562v-3.514zm26.467-62.834c0 11.368 2.152 19.636 6.886 25.01 4.519 5.167 10.113 7.854 16.784 7.854 7.316 0 13.34-2.687 18.29-8.06 5.164-5.375 7.531-13.436 7.531-24.184 0-10.954-2.367-19.222-7.1-24.596-4.735-5.374-10.76-8.06-18.076-8.06-7.1 0-12.91 2.48-17.43 7.853-4.733 5.374-6.885 13.435-6.885 24.183zM1277.397 1102.776l-26.682-4.754c3.013-10.334 8.177-17.982 15.493-22.942 7.316-4.961 18.29-7.441 32.707-7.441 13.341 0 23.024 1.447 29.48 4.34 6.455 3.1 10.974 6.821 13.556 11.575 2.797 4.547 4.088 13.021 4.088 25.216l-.43 33.277c0 9.301.43 16.329 1.506 20.67.86 4.546 2.582 9.3 5.164 14.468h-29.049c-.86-1.86-1.721-4.754-2.797-8.475-.646-1.653-.86-2.687-1.076-3.307-5.164 4.754-10.544 8.268-16.353 10.748-5.595 2.274-11.835 3.514-18.29 3.514-11.405 0-20.443-3.1-27.113-9.094-6.67-5.995-9.898-13.435-9.898-22.736 0-5.994 1.506-11.368 4.518-16.122 3.013-4.754 7.101-8.268 12.48-10.955 5.595-2.48 13.342-4.754 23.67-6.614 13.772-2.48 23.24-4.754 28.62-6.82v-2.894c0-5.374-1.507-9.301-4.304-11.575-2.798-2.48-7.962-3.514-15.708-3.514-5.38 0-9.468 1.034-12.266 2.894-3.012 2.067-5.38 5.58-7.316 10.541zm39.593 22.943c-3.873 1.24-9.683 2.687-18.075 4.34-8.177 1.654-13.556 3.307-15.923 4.96-3.873 2.688-5.81 5.995-5.81 9.922 0 3.927 1.506 7.44 4.519 10.334 3.228 2.894 7.1 4.34 11.835 4.34 5.38 0 10.328-1.653 15.277-4.96 3.443-2.687 5.81-5.787 7.101-9.507.646-2.48 1.076-7.028 1.076-13.849v-5.58zM1375.123 1029.194h29.48v147.99h-29.48z"/></g></g></svg>