<svg xmlns="http://www.w3.org/2000/svg" viewBox="0 0 1680 1420"><g transform="matrix(1.16183 0 0 1.20954 -261.411 -62.896)"><path style="fill:none" d="M225 52h1446v1174H225z"/><clipPath id="a"><path d="M225 52h1446v1174H225z"/></clipPath><g clip-path="url(#a)"><path d="M1229 106v190l442 325.5L1229 106zM1229 419l442 260-442-68V419zM1229 745l442 24-442 166V745zM1229 1035l442-215-442 406v-191z" style="fill:#ff6766" transform="matrix(.86071 0 0 .82676 224.139 -34.81)"/><g><path d="M1229 106v190L0 543l1229-437zM1229 419v192L0 705l1229-286M1229 745v190L0 826l1229-81zM1229 1035v191L0 949l1229 86z" style="fill:#fe0000" transform="matrix(.86071 0 0 .82676 224.139 -34.81)"/></g><g><path d="M.073 0v-.716h.304c.077 0 .133.007.167.019a.16.16 0 0 1 .083.069.207.207 0 0 1 .032.113.189.189 0 0 1-.048.133.223.223 0 0 1-.141.066.321.321 0 0 1 .077.06c.02.022.048.061.082.116L.717 0H.544L.439-.156a.961.961 0 0 0-.076-.105.12.12 0 0 0-.043-.03.253.253 0 0 0-.073-.008H.218V0H.073zm.145-.413h.107a.547.547 0 0 0 .13-.009.08.08 0 0 0 .04-.03.09.09 0 0 0 .015-.054.085.085 0 0 0-.02-.058.086.086 0 0 0-.054-.028.992.992 0 0 0-.105-.003H.218v.182z" style="fill-rule:nonzero" transform="matrix(215.1785 0 0 206.69025 486.832 1177.185)"/><path d="M.075 0v-.716h.144v.318l.292-.318h.195l-.27.279L.72 0H.533L.336-.336l-.117.12V0H.075z" style="fill-rule:nonzero" transform="matrix(215.1785 0 0 206.69025 642.227 1177.185)"/><path d="M.077 0v-.71h.144v.589h.36V0H.077z" style="fill-rule:nonzero" transform="matrix(215.1785 0 0 206.69025 857.405 1177.185)"/><path d="m.372-.165.137.023a.23.23 0 0 1-.083.114.241.241 0 0 1-.143.04c-.09 0-.157-.03-.2-.089a.295.295 0 0 1-.051-.178c0-.086.022-.154.067-.202A.222.222 0 0 1 .27-.53c.077 0 .138.025.182.076.045.051.066.129.064.234H.172c.001.041.012.073.034.095a.102.102 0 0 0 .079.034.09.09 0 0 0 .054-.017.106.106 0 0 0 .033-.057zM.38-.304C.379-.343.369-.374.349-.394a.092.092 0 0 0-.071-.031.096.096 0 0 0-.074.032.123.123 0 0 0-.029.089H.38z" style="fill-rule:nonzero" transform="matrix(215.1785 0 0 206.69025 988.845 1177.185)"/><path d="m.059.034.157.019c.002.018.008.031.018.038.013.01.033.014.061.014A.159.159 0 0 0 .376.089.063.063 0 0 0 .403.055.186.186 0 0 0 .41-.008v-.076A.186.186 0 0 1 .254 0a.19.19 0 0 1-.165-.088.302.302 0 0 1-.048-.174c0-.087.021-.154.063-.199A.203.203 0 0 1 .26-.53c.064 0 .117.028.158.084v-.073h.129v.466a.466.466 0 0 1-.015.137.171.171 0 0 1-.043.071.177.177 0 0 1-.073.041.376.376 0 0 1-.115.014C.213.21.151.195.114.165A.14.14 0 0 1 .059.051V.034zM.182-.27c0 .055.01.095.032.121a.098.098 0 0 0 .078.038.109.109 0 0 0 .085-.039c.024-.026.035-.065.035-.117C.412-.32.401-.36.379-.386a.105.105 0 0 0-.084-.039.099.099 0 0 0-.081.038C.192-.361.182-.322.182-.27z" style="fill-rule:nonzero" transform="matrix(215.1785 0 0 206.69025 1108.517 1177.185)"/><path d="M.174-.36.05-.383a.194.194 0 0 1 .072-.111.264.264 0 0 1 .152-.036c.062 0 .107.007.137.021.03.015.051.033.063.056a.266.266 0 0 1 .019.122L.491-.17c0 .045.002.079.007.1A.277.277 0 0 0 .522 0H.387a.341.341 0 0 1-.013-.041L.369-.057a.219.219 0 0 1-.161.069.177.177 0 0 1-.126-.044.143.143 0 0 1-.046-.11.142.142 0 0 1 .079-.131.478.478 0 0 1 .11-.032.805.805 0 0 0 .133-.033v-.014c0-.026-.007-.045-.02-.056C.325-.42.301-.425.265-.425a.1.1 0 0 0-.057.014.106.106 0 0 0-.034.051zm.184.111a.767.767 0 0 1-.084.021.23.23 0 0 0-.074.024c-.018.013-.027.029-.027.048s.007.036.021.05a.077.077 0 0 0 .055.021.121.121 0 0 0 .071-.024.099.099 0 0 0 .033-.046.314.314 0 0 0 .005-.067v-.027z" style="fill-rule:nonzero" transform="matrix(215.1785 0 0 206.69025 1239.956 1177.185)"/><path style="fill-rule:nonzero" d="M.072-.716h.137V0H.072z" transform="matrix(215.1785 0 0 206.69025 1359.63 1177.185)"/></g></g></g></svg>