<svg xmlns="http://www.w3.org/2000/svg" viewBox="0 0 33.87 33.87"><path d="M16.956 27.173c-6.973-.044-13.978.698-15.82 1.257-2.94.893.753 2.038 8.32 2.518 2.03.128 12.13-.038 13.987-.23 5.95-.617 7.954-1.6 4.904-2.405-3.037-.803-7.208-1.113-11.391-1.14z" fill="#b2b2b2"/><path d="M18.03 19.856c-5.015.023-10.194.152-15.714.13a48.447 48.447 0 0 0-1.508 2.38c.673 3.553.653 4.399 1.627 7.332.25.275.26.275 12.12.275 13.623 0 12.316.137 12.641-1.325.416-1.874 1.111-5.644 1.112-6.029-.03-.932-1.014-1.802-1.392-2.634-2.928-.118-5.877-.142-8.886-.129zm-12.164 1.69a.76.76 0 0 1 .297.075c.174.08.5.107.726.062.275-.055.448-.024.52.094.09.145.146.146.32.002.177-.148.29-.119.737.191.29.202.528.388.528.414 0 .027-1.31.048-2.91.048-2.5 0-2.911-.028-2.911-.198 0-.194.214-.255.708-.203.134.014.378-.1.542-.254.236-.222.364-.254.622-.156.208.079.41.076.563-.01a.498.498 0 0 1 .258-.066zm16.642.278a1.4 1.4 0 0 1 .244.019c.255.038.671.064.926.058.492-.011 1.05-.007 1.582.014.18.007.47.126.646.265.32.251.307.253-2.045.252h-2.366l.397-.33c.234-.193.396-.273.616-.278z" fill="#3670c6"/><path d="M32.032 2.874c-.566-.018-1.121.253-1.39.82-.323.68-.274 1.108.18 1.561.768.769.785.743-3.235 4.841-1.78 1.814-2.063 1.95-2.329 1.125-1.022-3.063-2.824-5.251-6.21-6.716-1.995-.478-4.43-.004-6.477.7-.17-1.043-.58-1.92-.985-2.105-.766-.316-1.489 1.25-1.856 2.004-1.446-.294-2.8-.147-4.374.275-.67-.859-1.078-1.455-2.119-1.997-1.475.348-1.418 8.774-.684 10.915.836 2.377 2.09 4.216 4.176 6.127 2.228 2.041 1.986 1.93 4.381 2.015 1.419.001 6.796.105 8.101.069.65-.018 1.905.065 2.32-.385.415-.45 8.242-9.875 12.012-15.104.286-.684.253-2.661-.053-3.231a1.717 1.717 0 0 0-1.458-.914z" fill="#121936"/><path d="M7.234 14.184c.058-.099.234-.246.39-.328.235-.123.368-.091.778.187.346.235.538.295.635.198.16-.161-.327-.75-.726-.877-.403-.128-.316-.809.154-1.204.482-.406.53-.905.099-1.021-.593-.159-1.65-.09-1.823.119-.227.274.018.808.465 1.011.498.227.456.847-.087 1.3-.287.24-.393.422-.335.572.102.268.306.287.45.043z" fill="#5d5d5d"/><path d="M5.92 11.453c.556-.34.956-1.003.956-1.588 0-.902-.915-1.85-1.785-1.851-.52 0-1.24.373-1.56.81-.41.56-.441 1.417-.072 1.954.607.881 1.651 1.168 2.46.675z" fill="#a91e55"/><path d="M4.787 10.103c-.305-.305-.092-.9.321-.9.186 0 .578.36.578.53 0 .17-.392.529-.578.529-.09 0-.234-.072-.321-.159zm6.589 1.317c.71-.483.991-.963.991-1.687 0-1.955-2.625-2.535-3.546-.785-.845 1.606 1.085 3.472 2.555 2.471z" fill="#a91e55"/><path d="M10.19 10.07c-.352-.424.164-1.074.623-.786.315.2.354.505.096.763-.266.266-.511.274-.72.023z" fill="#a91e55"/><path d="M5.92 11.453c.556-.34.956-1.003.956-1.588 0-.902-.915-1.85-1.785-1.851-.52 0-1.24.373-1.56.81-.41.56-.441 1.417-.072 1.954.607.881 1.651 1.168 2.46.675z" fill="#575757"/><path d="M4.787 10.103c-.305-.305-.092-.9.321-.9.186 0 .578.36.578.53 0 .17-.392.529-.578.529-.09 0-.234-.072-.321-.159zm6.589 1.317c.71-.483.991-.963.991-1.687 0-1.955-2.625-2.535-3.546-.785-.845 1.606 1.085 3.472 2.555 2.471z" fill="#575757"/><path d="M10.19 10.07c-.352-.424.164-1.074.623-.786.315.2.354.505.096.763-.266.266-.511.274-.72.023z" fill="#575757"/><path d="M11.838 14.098c-.087-.14-1.453-.661-1.736-.661-.46 0-.046.332.752.602.824.279 1.131.297.984.059zm-6.515-.091c.345-.124.628-.307.628-.407 0-.126-.09-.154-.298-.09-.665.203-1.157.45-1.157.582 0 .187.094.177.827-.085zm6.855-.901c0-.15-1.95-.418-2.083-.285-.151.151.051.243.775.35.868.13 1.307.109 1.308-.065zm-6.26-.166c.061-.183-.493-.217-1.323-.08-.82.136-.56.327.386.285.559-.025.903-.1.937-.204zm-1.11-1.024a.823.823 0 0 1 .505-.2c.741-.002 1.562-.928 1.563-1.765.002-1.212-.845-2.018-2.004-1.906-.916.088-1.564.717-1.666 1.616-.043.383-.11.558-.175.453-.17-.276-.305.506-.168.981.224.783 1.46 1.304 1.945.82z" fill="#5d5d5d"/><circle cx="5.037" cy="9.858" r="1.848" fill="#fff"/><circle cx="5.101" cy="9.731" r=".43"/><path d="M12.466 11.455c.266-.295.362-.537.356-.898-.012-.672-.738-1.998-1.301-2.375-1.213-.812-2.923.134-2.923 1.617 0 .965.882 1.914 1.785 1.92.218 0 .486.063.595.137.346.236 1.097.033 1.488-.401z" fill="#5d5d5d"/><circle r="1.848" cy="9.782" cx="10.475" fill="#fff"/><circle r=".43" cy="9.677" cx="10.532"/><path d="M6.603 7.038c-.15-.598-.325-.851-.48-.696-.07.07.183 1.189.326 1.45.034.062.117.056.185-.013.078-.077.066-.356-.031-.74zm2.475.174c.213-.712.223-.919.045-.919-.159 0-.339.433-.47 1.127-.133.713.199.55.425-.208zm-3.285-.426c-.083-.271-.23-.493-.327-.493-.227 0-.222.123.031.729.266.638.506.447.296-.236zm4.097.081c.136-.404.1-.574-.118-.574-.14 0-.392.934-.295 1.09.102.167.246-.012.414-.516zm-6.01-.739c.25-.337.252-.372.036-.936-.123-.323-.344-.695-.491-.829-.393-.355-.512-.072-.515 1.224l-.002 1.08.355-.095c.195-.052.473-.252.616-.444zm7.989-.86c-.12-1.666-.313-1.85-.858-.819-.432.818-.36 1.316.232 1.612.254.128.516.232.58.232.066 0 .086-.457.046-1.025z" fill="#5d5d5d"/><path d="M8.564 12.073c.163-.149.297-.401.297-.562 0-.345-.297-.451-1.273-.454-.827-.002-1.095.227-.863.736.175.384.853.714 1.262.616.154-.037.413-.188.577-.336z" fill="#ad1f57"/><path d="M14.346 8.058c.286-.242-.303-.525-.724-1.236-.313-.528-.422-1.202-.596-1.444-.095-.131-.374-.14-.364.05.262 1.44 1.38 2.887 1.684 2.63z" fill="#5d5d5d"/></svg>