<svg xmlns="http://www.w3.org/2000/svg" viewBox="0 0 256 256"><path fill="hsl(0, 100%, 40%)" d="M23 65.6 130 3.3l107 62.3v124.5l-107 62.3-107-62.3z"/><path fill="#fff" d="m133 127.8 99.5-57.3 4 115.5L133 248.5z"/><path fill="hsl(0, 100%, 40%)" d="m234 67-.3 122.4-103.8 60.2-.5-120.3L234 67zm-87.3 72.3.3 80.4 34.5-20.1-.1-60.6 17.4-10.3v60.8l17.4-10.2.1-81.4-69.6 41.4z"/><path fill="hsl(0, 93%, 29%)" d="M136.8 4.2c-4.8-2.7-12.5-2.7-17.3 0L24.7 58.7c-4.8 2.7-8.6 9.5-8.6 14.9v109c0 5.5 3.9 12.2 8.6 14.9l94.8 54.5c4.8 2.7 12.5 2.7 17.3 0l94.8-54.5c4.8-2.7 8.6-9.5 8.6-14.9v-109c0-5.5-3.9-12.2-8.6-14.9L136.8 4.2zm84.1 57c4.8 2.7 4.8 7.2 0 9.9l-83 47.7c-4.8 2.7-12.5 2.7-17.3 0L36.4 70.4c-4.8-2.7-4.8-7.2 0-9.9l83-47.7c4.8-2.7 12.5-2.7 17.3 0l84.2 48.4zM23.5 81.5c0-5.5 3.9-7.7 8.6-5l84.9 48.8c4.8 2.7 8.6 9.5 8.6 14.9V237c0 5.5-3.9 7.7-8.6 5l-84.9-48.8c-4.8-2.7-8.6-9.5-8.6-14.9V81.5zm118.3 159c-4.8 2.7-8.6.5-8.6-5v-95.3c0-5.5 3.9-12.2 8.6-14.9L224.2 78c4.8-2.7 8.6-.5 8.6 5v95.3c0 5.5-3.9 12.2-8.6 14.9l-82.4 47.3z"/></svg>