<svg xmlns="http://www.w3.org/2000/svg" viewBox="-18 0 290 290"><path fill="hsl(109, 40%, 44%)" d="M128 288.5c-4 0-7.7-1.1-11.1-3l-35.3-20.9c-5.3-2.9-2.6-4-1-4.5 7.1-2.4 8.4-3 15.9-7.1.8-.6 1.8-.3 2.6.2l27 16.2c1.1.5 2.4.5 3.2 0l105.8-61.2c1-.6 1.6-1.6 1.6-3v-122c0-1.3-.6-2.4-1.6-3L129.3 19.3c-1-.5-2.4-.5-3.2 0l-105.7 61c-1 .5-1.6 1.8-1.6 2.9v122.2c0 1 .5 2.3 1.6 2.9L49.3 225c15.6 8 25.4-1.4 25.4-10.6V93.7c0-1.6 1.4-3.2 3.2-3.2h13.5c1.6 0 3.2 1.3 3.2 3.2v120.6c0 20.9-11.4 33-31.3 33-6 0-10.8 0-24.3-6.5l-27.9-16A22.4 22.4 0 010 205.6V83.3C0 75.4 4.2 68 11.1 64L117 2.8a23.7 23.7 0 0122.2 0L245 64c6.9 4 11.1 11.4 11.1 19.3v122.2c0 8-4.2 15.4-11.1 19.4L139 286a27.1 27.1 0 01-11.1 2.4zm32.6-84c-46.4 0-56-21.2-56-39.3 0-1.6 1.4-3.1 3.3-3.1h13.7c1.6 0 3 1 3 2.6 2 14 8.2 21 36.3 21 22.2 0 31.8-5.1 31.8-17 0-7-2.7-12-37.4-15.4-28.9-3-47-9.3-47-32.3 0-21.5 18.1-34.2 48.3-34.2 34 0 50.6 11.7 52.8 37 0 .9-.3 1.7-.8 2.5-.6.5-1.4 1-2.2 1h-13.7c-1.4 0-2.7-1-3-2.3-3.1-14.6-11.3-19.4-33-19.4-24.5 0-27.4 8.5-27.4 14.8 0 7.7 3.5 10.1 36.3 14.4 32.6 4.2 48 10.3 48 33-.3 23.4-19.3 36.7-53 36.7z"/></svg>