<svg xmlns="http://www.w3.org/2000/svg" viewBox="0 0 840 500"><defs><style>.cls-1{fill:#1c96d4}.cls-2{fill:#c61a41}.cls-3{fill:#eeb034}</style></defs><title>logo</title><path d="M587.08 9.37l-6.92-4.65A28.9 28.9 0 0 0 558.69.55h-.24a28.64 28.64 0 0 0-17.89 12.17l-295 441.56a28.71 28.71 0 0 0-4.17 21.35v.39a28.39 28.39 0 0 0 12.17 17.77l6.92 4.53a28.52 28.52 0 0 0 39.6-8.11l295-441.44a29 29 0 0 0 4.17-21.47 28 28 0 0 0-12.17-17.93zm-4.77 31l-35.07 52.48-28.86-19.08 35.07-52.36a13.08 13.08 0 0 1 8.35-5.61 13.2 13.2 0 0 1 9.9 1.91l6.92 4.65a13.08 13.08 0 0 1 5.61 8.35 12.82 12.82 0 0 1-1.92 9.67zM167.71 387.83a16.92 16.92 0 0 1-10.62-3.7L6.56 265.21a17.13 17.13 0 0 1 0-27L156.97 119.1a17.248 17.248 0 1 1 21.47 27L45.09 251.73l133.23 105.29a17.24 17.24 0 0 1-10.61 30.81zM672.48 387.83a17.24 17.24 0 0 1-10.6-30.81L795.1 251.73 661.75 146.02a17.21 17.21 0 1 1 21.35-27l150.4 119.24a17.13 17.13 0 0 1 0 27L683.1 384.02a17.05 17.05 0 0 1-10.62 3.81z"/><path class="cls-1" d="M374.29 147.13c9.42-25.88 17.18-33.52 43.06-43.06-25.88-9.42-33.47-17.18-43.06-43.05-9.42 25.88-17.18 33.52-43.06 43.06 25.89 9.53 33.52 17.17 43.06 43.05z"/><path class="cls-2" d="M267.78 293.48c16.46-44.85 29.7-58.09 74.55-74.55-44.85-16.46-58.09-29.7-74.55-74.55-16.46 44.85-29.7 58.09-74.55 74.55 44.85 16.34 58.21 29.7 74.55 74.55z"/><path class="cls-3" d="M558.93 362.42c11.93-32.56 21.59-42.1 54-54-32.56-11.93-42.1-21.59-54-54-11.93 32.56-21.59 42.1-54 54 32.41 11.9 42.07 21.6 54 54z"/></svg>