<svg xmlns="http://www.w3.org/2000/svg" viewBox="0 0 840.06 502.99"><defs><style>.cls-1{fill:#1c96d4;}.cls-2{fill:#c61a41;}.cls-3{fill:#eeb034;}</style></defs><title>logo</title><path d="M589.2,45.35l-6.92-4.65h0a28.9,28.9,0,0,0-21.47-4.17h-0.24a28.64,28.64,0,0,0-17.89,12.17l-295,441.56h0a28.71,28.71,0,0,0-4.17,21.35h0V512h0a28.39,28.39,0,0,0,12.17,17.77l6.92,4.53a28.52,28.52,0,0,0,39.6-8.11l295-441.44h0a29,29,0,0,0,4.17-21.47A28,28,0,0,0,589.2,45.35Zm-4.77,31-35.07,52.48L520.5,109.75l35.07-52.36h0a13.08,13.08,0,0,1,8.35-5.61h0a13.2,13.2,0,0,1,9.9,1.91l6.92,4.65h0a13.08,13.08,0,0,1,5.61,8.35A12.82,12.82,0,0,1,584.43,76.36Z" transform="translate(-2.12 -35.98)"/><path d="M169.83,423.81a16.92,16.92,0,0,1-10.62-3.7L8.68,301.19a17.13,17.13,0,0,1,0-27L159.09,155.08a17.23,17.23,0,1,1,21.47,27L47.21,287.71,180.44,393A17.24,17.24,0,0,1,169.83,423.81Z" transform="translate(-2.12 -35.98)"/><path d="M674.6,423.81A17.24,17.24,0,0,1,664,393L797.22,287.71,663.87,182a17.19,17.19,0,1,1,21.35-27L835.62,274.24a17.13,17.13,0,0,1,0,27L685.22,420A17.05,17.05,0,0,1,674.6,423.81Z" transform="translate(-2.12 -35.98)"/><path class="cls-1" d="M376.41,183.11c9.42-25.88,17.18-33.52,43.06-43.06C393.59,130.63,386,122.87,376.41,97c-9.42,25.88-17.18,33.52-43.06,43.06C359.24,149.59,366.87,157.23,376.41,183.11Z" transform="translate(-2.12 -35.98)"/><path class="cls-2" d="M269.9,329.46c16.46-44.85,29.7-58.09,74.55-74.55-44.85-16.46-58.09-29.7-74.55-74.55-16.46,44.85-29.7,58.09-74.55,74.55C240.2,271.25,253.56,284.61,269.9,329.46Z" transform="translate(-2.12 -35.98)"/><path class="cls-3" d="M561.05,398.4c11.93-32.56,21.59-42.1,54-54-32.56-11.93-42.1-21.59-54-54-11.93,32.56-21.59,42.1-54,54C539.46,356.3,549.12,366,561.05,398.4Z" transform="translate(-2.12 -35.98)"/></svg>
