<svg xmlns="http://www.w3.org/2000/svg" viewBox="0 0 128 128"><path d="M59 2.8v61.4c-1 0-1.5.7-1.5 1.5s.7 1.5 1.5 1.5c-.8 0-1.5.7-1.5 1.5S58.2 70 59 70a1.5 1.5 0 000 3h10c.9 0 1.5-.7 1.5-1.5s-.6-1.5-1.4-1.5c.8 0 1.4-.6 1.4-1.4 0-.8-.6-1.5-1.4-1.5a1.5 1.5 0 000-3h-.2V2.9C69 1.3 67.6 0 66.1 0h-4.3A2.8 2.8 0 0059 2.8z"/><path d="M64 70l-21 5.8-4.6 52.2h51.2l-4.7-52.2zm0 11l13.1 3.7 1 10.3h-6.5l-.5-5.3-7.1-2-7.1 2-.8 8.2h22.2l1.7 19.4H48l.5-6.4H73l-.5-6.5H49l1.8-19.7z"/><path d="M64 74.4l17 4.7 3.9 44.6H64z" fill="#0a0209" opacity=".5"/><path d="M64 74.4l-17 4.7-3.9 44.6H64z" fill="#fff" opacity=".2"/></svg>