<svg id="Layer_1" xmlns="http://www.w3.org/2000/svg" viewBox="0 0 120 120"><style>.st1{fill:#3c91cf}.st2{fill:#fff}</style><circle cx="60" cy="60" r="60" fill="#162740"/><path class="st1" d="M27.3 96c-3.6-.1-6.2-1.1-8-3s-2.7-4.9-2.7-9.2V71.3c0-6.6-2.2-10.3-6.5-10.9v-2.7c4.4-.6 6.5-4 6.5-10.2V34.4c0-4.3.9-7.3 2.7-9.2 1.8-1.9 4.5-2.9 8-3v3.5c-2.5.1-4.2.9-5.2 2.4s-1.5 4-1.5 7.5v12.3c0 6.2-2 9.9-6.1 11.2v.2c4.1 1.3 6.1 5.2 6.1 11.8v11.6c0 3.6.5 6.1 1.5 7.5 1 1.5 2.7 2.3 5.2 2.4V96zM110.9 60.4c-4.3.6-6.5 4.3-6.5 10.9v12.5c0 4.3-.9 7.3-2.7 9.2-1.8 1.9-4.5 2.9-8 3v-3.5c2.3-.1 4-.9 5.1-2.2 1.1-1.3 1.6-3.9 1.6-7.7V71c0-6.6 2-10.5 6.1-11.8V59c-4.1-1.3-6.1-5-6.1-11.2V35.6c0-3.8-.5-6.3-1.6-7.7-1.1-1.3-2.8-2.1-5.1-2.2v-3.5c3.6.1 6.2 1.1 8 3 1.8 1.9 2.7 4.9 2.7 9.2v13.2c0 6.2 2.2 9.6 6.5 10.2v2.6z"/><path class="st2" d="M59.9 31.6H49.5v29.8h-8.2V31.6H30.9v-6.7h29v6.7zM63.2 60v-8.1c1.5 1.2 3.1 2.2 4.8 2.8 1.7.6 3.5.9 5.2.9 1 0 1.9-.1 2.7-.3s1.4-.4 1.9-.8c.5-.3.9-.7 1.2-1.2.3-.4.4-.9.4-1.5 0-.7-.2-1.3-.6-1.9s-1-1.1-1.7-1.6-1.5-.9-2.5-1.4c-1-.4-2-.9-3.1-1.3-2.8-1.2-5-2.6-6.4-4.4S63 37.6 63 35.1c0-1.9.4-3.5 1.1-4.9.8-1.4 1.8-2.5 3.1-3.4 1.3-.9 2.8-1.5 4.6-1.9 1.7-.4 3.6-.6 5.5-.6s3.6.1 5 .3c1.5.2 2.8.6 4.1 1.1v7.6c-.6-.4-1.3-.8-2-1.1-.7-.3-1.5-.6-2.2-.8-.8-.2-1.5-.4-2.3-.5-.8-.1-1.5-.2-2.1-.2-.9 0-1.8.1-2.5.3-.8.2-1.4.4-1.9.8-.5.3-.9.7-1.2 1.2-.3.4-.4 1-.4 1.5 0 .6.2 1.2.5 1.6.3.5.8.9 1.4 1.4.6.4 1.3.9 2.2 1.3.8.4 1.8.8 2.9 1.3 1.5.6 2.8 1.3 3.9 1.9 1.2.7 2.2 1.5 3 2.3.8.9 1.5 1.9 1.9 3 .4 1.1.7 2.4.7 3.9 0 2-.4 3.7-1.2 5.1-.8 1.4-1.8 2.5-3.1 3.4-1.3.9-2.9 1.5-4.6 1.8-1.8.4-3.6.6-5.6.6-2 0-3.9-.2-5.7-.5-2.1-.4-3.6-.9-4.9-1.6z"/><g><path class="st2" d="M49.2 93.2H37.5V72H41v18.2h8.2v3zM53.6 74.9c-.6 0-1-.2-1.4-.5-.4-.4-.6-.8-.6-1.4s.2-1 .6-1.4c.4-.4.9-.6 1.4-.6.6 0 1.1.2 1.5.6s.6.8.6 1.4c0 .5-.2 1-.6 1.4-.4.3-.9.5-1.5.5zm1.7 18.3h-3.4V78.1h3.4v15.1zM73.2 93.2h-3.4v-8.5c0-2.8-1-4.2-3-4.2-1 0-1.9.4-2.6 1.2s-1 1.8-1 3v8.6h-3.4V78.1h3.4v2.5h.1c1.1-1.9 2.8-2.9 4.9-2.9 1.6 0 2.9.5 3.8 1.6.9 1.1 1.3 2.6 1.3 4.6v9.3zM85.4 93c-.7.3-1.5.5-2.6.5-2.9 0-4.4-1.4-4.4-4.2v-8.5h-2.5v-2.7h2.5v-3.5l3.4-1v4.5h3.6v2.7h-3.6v7.6c0 .9.2 1.5.5 1.9.3.4.9.6 1.6.6.6 0 1.1-.2 1.5-.5V93z"/></g><path d="M86.5 100l-2.9-2.9c-.6-.6-1.5-.6-2.1 0l-2 1.9-1.9-1.9c-.6-.6-1.5-.6-2.1 0l-2 1.9-1.9-1.9c-.6-.6-1.5-.6-2.1 0l-2 1.9-1.9-1.9c-.6-.6-1.5-.6-2.1 0l-2 1.9-1.9-1.9c-.6-.6-1.5-.6-2.1 0l-2 1.9-1.9-1.9c-.6-.6-1.5-.6-2.1 0l-2 1.9-1.9-1.9c-.6-.6-1.5-.6-2.1 0l-2 1.9-1.9-1.9c-.6-.6-1.5-.6-2.1 0l-2.9 2.9c-.6.6-.6 1.5 0 2.1.6.6 1.5.6 2.1 0l1.9-1.9 1.9 1.9c.3.3.7.4 1.1.4h.1c.4 0 .8-.1 1.1-.4l1.9-1.9 1.9 1.9c.3.3.7.4 1.1.4h.1c.4 0 .8-.1 1.1-.4l1.9-1.9 1.9 1.9c.3.3.7.4 1.1.4h.1c.4 0 .8-.1 1.1-.4l1.9-1.9 1.9 1.9c.3.3.7.4 1.1.4h.1c.4 0 .8-.1 1.1-.4l1.9-1.9 1.9 1.9c.3.3.7.4 1.1.4h.1c.4 0 .8-.1 1.1-.4l1.9-1.9 1.9 1.9c.3.3.7.4 1.1.4h.1c.4 0 .8-.1 1.1-.4l1.9-1.9 1.9 1.9c.3.3.7.4 1.1.4h.1c.4 0 .8-.1 1.1-.4l1.9-1.9 1.9 1.9c.3.3.7.4 1.1.4s.8-.1 1.1-.4c-.3-.6-.3-1.5-.9-2.1z" fill="#ed1c24"/></svg>