<svg viewBox="0 0 405.95 456.25" xmlns="http://www.w3.org/2000/svg"><path d="M405.926 134.137c-.004-7.67-1.644-14.45-4.962-20.268-3.259-5.722-8.14-10.517-14.686-14.308-54.044-31.161-108.14-62.227-162.164-93.42-14.565-8.409-28.686-8.102-43.144.428C159.46 19.255 51.763 80.956 19.671 99.544 6.455 107.195.024 118.904.021 134.124 0 196.79.02 259.456 0 322.125c.003 7.504 1.574 14.151 4.746 19.881 3.26 5.894 8.21 10.822 14.908 14.7 32.093 18.586 139.804 80.284 161.31 92.973 14.464 8.533 28.585 8.839 43.155.427 54.026-31.195 108.125-62.26 162.176-93.42 6.697-3.876 11.646-8.806 14.908-14.696 3.167-5.73 4.74-12.378 4.743-19.883 0 0 0-125.3-.02-187.97" fill="#973497"/><path d="M203.594 227.514L4.746 342.006c3.26 5.894 8.21 10.822 14.908 14.7 32.093 18.586 139.804 80.284 161.31 92.973 14.464 8.533 28.585 8.839 43.155.427 54.026-31.195 108.125-62.26 162.176-93.42 6.697-3.876 11.646-8.806 14.908-14.696l-197.61-114.476" fill="#602276"/><path d="M144.697 261.428c11.572 20.2 33.324 33.825 58.277 33.825 25.106 0 46.982-13.798 58.494-34.214l-57.874-33.525-58.897 33.913" fill="#602276"/><path d="M405.926 134.137c-.004-7.67-1.644-14.45-4.962-20.268l-197.37 113.645L401.202 341.99c3.168-5.73 4.742-12.377 4.744-19.882 0 0 0-125.302-.02-187.97" fill="#7b2487"/><path d="M261.467 261.039c-11.51 20.416-33.387 34.214-58.493 34.214-24.953 0-46.705-13.625-58.277-33.825a66.806 66.806 0 0 1-8.852-33.304c0-37.074 30.055-67.128 67.129-67.128 24.791 0 46.43 13.455 58.057 33.449l58.674-33.788c-23.321-40.257-66.861-67.34-116.731-67.34-74.455 0-134.81 60.356-134.81 134.807 0 24.425 6.498 47.33 17.854 67.087 23.263 40.47 66.928 67.722 116.956 67.722 50.118 0 93.852-27.36 117.081-67.95l-58.588-33.944M335.609 260.832h-13.334V196.25h13.334v64.582M365.191 260.832H351.86V196.25h13.332v64.582" fill="#fff"/><path d="M311.441 220.416v-13.334h64.584v13.334h-64.584M311.441 250v-13.334h64.584V250h-64.584" fill="#fff"/></svg>