<svg viewBox="0 0 405.95 456.25" xmlns="http://www.w3.org/2000/svg"><path style="fill:#973497" d="M3247.41 2576.9c-.03 61.37-13.15 115.6-39.7 162.15-26.07 45.77-65.12 84.13-117.49 114.46-432.35 249.29-865.11 497.82-1297.31 747.36-116.52 67.27-229.49 64.82-345.15-3.42-172.08-101.49-1033.655-595.1-1290.389-743.8C51.641 2792.44.191 2698.77.164 2577.01 0 2075.68.164 1574.35 0 1073c.023-60.03 12.594-113.211 37.969-159.051 26.086-47.148 65.679-86.57 119.261-117.59C413.98 647.66 1275.66 154.078 1447.71 52.57c115.71-68.27 228.68-70.71 345.24-3.422 432.21 249.563 865 498.082 1297.41 747.364 53.58 31.008 93.17 70.449 119.26 117.566 25.34 45.844 37.93 99.022 37.95 159.062 0 0 0 1002.41-.16 1503.76" transform="matrix(.13 0 0 -.13 0 456.25)"/><path style="fill:#602276" d="M1628.75 1829.89 37.969 913.949c26.086-47.148 65.679-86.57 119.261-117.59C413.98 647.66 1275.66 154.078 1447.71 52.57c115.71-68.27 228.68-70.71 345.24-3.422 432.21 249.563 865 498.082 1297.41 747.364 53.58 31.008 93.17 70.449 119.26 117.566L1628.75 1829.89" transform="matrix(.13 0 0 -.13 0 456.25)"/><path style="fill:#602276" d="M1157.58 1558.58c92.57-161.6 266.59-270.6 466.21-270.6 200.85 0 375.86 110.38 467.95 273.71l-462.99 268.2-471.17-271.31" transform="matrix(.13 0 0 -.13 0 456.25)"/><path style="fill:#7b2487" d="M3247.41 2576.9c-.03 61.37-13.15 115.6-39.7 162.15l-1578.96-909.16 1580.87-915.812c25.34 45.844 37.93 99.022 37.95 159.062 0 0 0 1002.41-.16 1503.76" transform="matrix(.13 0 0 -.13 0 456.25)"/><path style="fill:#fff" d="M2091.74 1561.69c-92.09-163.33-267.1-273.71-467.95-273.71-199.62 0-373.64 109-466.21 270.6-44.97 78.53-70.82 169.44-70.82 266.43 0 296.59 240.44 537.02 537.03 537.02 198.33 0 371.44-107.64 464.46-267.59l469.39 270.3c-186.57 322.06-534.89 538.73-933.85 538.73-595.64 0-1078.474-482.85-1078.474-1078.46 0-195.4 51.981-378.64 142.832-536.7C874.25 964.551 1223.57 746.539 1623.79 746.539c400.95 0 750.82 218.883 936.65 543.601l-468.7 271.55M2684.87 1563.34H2578.2V2080h106.67v-516.66M2921.53 1563.34h-106.66V2080h106.66v-516.66" transform="matrix(.13 0 0 -.13 0 456.25)"/><path style="fill:#fff" d="M2491.53 1886.67v106.67h516.67v-106.67h-516.67M2491.53 1650v106.67h516.67V1650h-516.67" transform="matrix(.13 0 0 -.13 0 456.25)"/></svg>