<svg xmlns="http://www.w3.org/2000/svg" viewBox="0 0 80 60"><rect width="80" height="60" rx="8" ry="8" fill="#a40000"/><path d="M8 8c-.81.1-1.446.747-1.448 1.53l.05 39.977v.483c0 .038.03.078.042.116 0 .038 0 .078.021.116v.039c0 .038.04.078.063.116.028.039.07.079.103.116 0 .038.04.078.063.116v.038c.039.03.082.05.124.077v.039a5.704 5.704 0 00.207.193h.021c.076.064.162.124.25.174h.04c.04.02.083.04.125.058h.02c.04.02.083.04.125.058h.186c.101 0 .209.037.311.038h.166l15.31-.061c4.376 0 7.307-.083 9.053-.304h.041c1.67-.232 3.44-.66 5.364-1.284 3.345-1.046 6.311-2.59 8.861-4.655 2.497-1.999 4.432-4.366 5.792-7.029 1.36-2.662 2.045-5.478 2.04-8.396 0-4.063-1.236-7.867-3.702-11.29-2.466-3.422-5.832-6.043-9.975-7.78C37.042 8.7 31.551 7.888 24.74 7.9l-16.533.024H8zm8.898 8.226h7.127c3.33 0 5.7.095 7.044.28 1.362.187 2.855.582 4.435 1.192 1.566.597 2.932 1.328 4.105 2.238v.039c3.227 2.47 4.749 5.44 4.756 9.373 0 4.026-1.463 7.162-4.607 9.793a15.313 15.313 0 01-3.23 2.035c-1.121.522-2.584.973-4.431 1.36-1.743.349-4.387.547-7.83.553h-7.335l-.034-26.863z" fill="#eeeeec"/><circle cx="55" cy="20" r="10" fill="#eeeeec"/><circle cx="70" cy="10" r="4" fill="#eeeeec"/></svg>