<svg xmlns="http://www.w3.org/2000/svg" viewBox="0 0 256 192"><path fill="hsl(331, 50%, 60%)" d="M220.3 110.5c-9 0-16.7 2.2-23.1 5.4-2.4-4.7-4.8-9-5.2-12-.5-3.6-1-5.8-.5-10 .6-4.4 3-10.5 3-11 0-.4-.5-2.6-5.6-2.6-5.2-.1-9.6 1-10.1 2.3-.5 1.3-1.5 4.4-2.2 7.6-.9 4.6-10.2 21.3-15.6 30a32.4 32.4 0 01-3.5-8.8c-.5-3.5-1-5.7-.5-10 .6-4.3 3-10.4 3-10.9s-.5-2.6-5.7-2.7c-5 0-9.5 1-10 2.3-.5 1.4-1.1 4.6-2.2 7.6a1641.3 1641.3 0 01-21 46.7v.4l-1.5 2.6c-.7 1.4-1.4 2.5-1.8 2.5-.3 0-.8-3.3 0-8 2-9.6 6.4-24.6 6.3-25 0-.4.9-3-2.9-4.3-3.6-1.4-4.9.9-5.2.9-.4 0-.6.7-.6.7s4-16.8-7.7-16.8c-7.4 0-17.6 8-22.6 15.3l-17.2 9.4-8.2 4.5-.6-.6C45 110.7 18.5 100 19.6 79.5c.4-7.5 3-27 50.7-50.8 39.2-19.4 70.5-14 75.9-2.1 7.7 17-16.8 48.5-57.3 53-15.5 1.8-23.6-4.2-25.7-6.4-2.1-2.4-2.4-2.5-3.2-2-1.3.7-.5 2.8 0 4 1.2 3.1 6.2 8.7 14.6 11.5 7.5 2.4 25.6 3.8 47.6-4.7 24.5-9.5 43.8-36 38.1-58.1-5.6-22.5-43-30-78.2-17.4A176.6 176.6 0 0022 41C2.5 59.2-.6 75 .7 81.6c4.5 23.6 37 38.8 49.9 50.2l-1.8 1c-6.5 3.2-31.2 16-37.3 29.8-7 15.4 1 26.5 6.5 28a39.9 39.9 0 0042.9-17.4 43 43 0 003.8-39.7l-.2-.2 5.1-3c3.3-2 6.6-3.8 9.4-5.3a61.5 61.5 0 00-3.3 17c-.7 8.8 2.9 20.1 7.6 24.6 2 2 4.6 2 6.1 2 5.5 0 8-4.6 10.8-10 3.3-6.6 6.4-14.3 6.4-14.3s-3.8 20.8 6.4 20.8c3.8 0 7.5-4.8 9.2-7.3l.3-.4.6-1v-.1c1.5-2.6 4.9-8.5 9.8-18.4 6.5-12.7 12.7-28.5 12.7-28.5s.5 3.9 2.5 10.3c1 3.8 3.4 8 5.3 12l-2.5 3.2a42.5 42.5 0 01-3.9 5c-5 6.1-11.1 13-12 15-1 2.4-.7 4.2 1.2 5.6 1.3 1 3.7 1.1 6.2 1 4.6-.3 7.8-1.5 9.4-2.2a31 31 0 008-4.2c5-3.7 8-9 7.8-16-.2-3.7-1.4-7.6-3-11.1l1.4-2c7.9-11.5 14-24.2 14-24.2s.6 4 2.5 10.3c.9 3.3 2.8 6.9 4.5 10.3-7.4 6-12 13-13.6 17.6-3 8.5-.7 12.3 3.7 13.2 2 .4 4.7-.5 6.8-1.4a31 31 0 008.6-4.4c5-3.7 9.8-8.9 9.5-15.8a30 30 0 00-2.1-9.3 50 50 0 0124.7-2.9c22.2 2.6 26.6 16.5 25.8 22.3-.9 5.8-5.5 9-7 10-1.6 1-2.1 1.3-2 2 .2 1 1 1 2.2.8 1.9-.3 11.7-4.7 12.1-15.4.7-13.8-12.3-28.7-35.4-28.6zM49 168.2c-7.4 8-17.7 11-22.1 8.5-4.8-2.7-2.9-14.6 6.2-23 5.5-5.2 12.5-10 17.3-13L55 138l.5-.3 1.2-.7c3.3 12.1.1 22.8-7.6 31.2zm53.6-36.4c-2.6 6.2-8 22.2-11.2 21.3-2.8-.7-4.5-12.8-.6-24.8 2-6 6.3-13.2 8.7-16 4-4.5 8.5-6 9.6-4.2 1.3 2.4-5 19.8-6.5 23.7zm44.2 21.1c-1 .6-2 1-2.5.7-.4-.2.4-1 .4-1s5.6-5.9 7.8-8.6l4.3-5.6v.7c0 7-6.9 11.9-10 13.8zm34.2-7.7c-.8-.6-.7-2.5 2-8.3a31 31 0 017.6-9.8c.4 1.5.8 3 .7 4.3 0 9-6.5 12.4-10.3 13.8z"/></svg>