<svg viewBox="0 0 256 256" xmlns="http://www.w3.org/2000/svg" xmlns:xlink="http://www.w3.org/1999/xlink"><defs><path id="a" d="M8.7 14.6L26 0v81.5L9.1 117.1.3 39.7l8.4-25.1z"/><path id="c" d="M.4.5h114.1v102.3H.4z"/><path id="e" d="M129.6 1.2H23.5L.2 15.5v102.4h113.9v-1.2l16.5-35.2V.1z"/><path id="f" d="M8.1.4C3.96.1 1.4 2.9.1 5.3c1.3 3.9 3.6 7 7.4 6.8 3.9-.3 6.2-3.3 7.8-7.15C13.9 2.9 11.7.7 8.1.4z"/><path id="h" d="M8.5.2c9.7.2 6.1 24.6 5.9 32.5-.3 8 1.4 15.1 1.56 20.26C16.1 58.1 18.8 73.7 7.1 73.6c-11.7-.1-4.5-30.4-4.4-36.7-.1 0-3.9-37 5.8-36.7zm32.8 0c-9.6.2-37 24.6-36.8 32.5 31.2 8 29.6 15.1 29.4 20.26-.2 5.14-2.8 20.74 8.9 20.64 11.6-.1 4.5-30.4 4.4-36.7 0 0 3.8-37-5.9-36.7z"/><path id="j" d="M129.8 6.9s.7-7.8 6.8-6.1c0 0 10.3 9.7 0 20.4-10.2 10.7-20.5 14-33.2 17.1-12.7 3-12.2 6.2-24.2 7.6-12 1.4-14.5-4.1-14.4-9 .1-4.8 4.5-10.9 15.3-10.6 10.8.2 9.6 4.3 20.6 2.4 11-1.8 22.5-7.4 26.3-10.4 3.8-2.9 7.2-6.8 2.8-11.4zM11.7 8.97S-.6 11.7.5 21.9c1.1 10.3 9.9 12.3 20.1 14.7 10.3 2.37 8.35 7.2 20.6 8.3 12.3 1.2 17.2-4.4 16-11.6-1.22-7.32-13.4-6.9-27.4-7-14.1-.1-18.1-6.5-18.1-6.5V8.97z"/></defs><circle fill="#2DCC9F" cx="127.9" cy="127.9" r="127.9"/><path fill="#D0F5F5" d="M68.1 91.5l23.7-14.4h106.9l-8.9 24.8-79.1 7.3-42.6-17.7z"/><path fill="#C8EEEE" d="M181.98 91.5l16.72-14.4.26 81-16.86 35.5-8.8-77.3z"/><g transform="translate(181.1 76.5)"><mask id="b" fill="#fff"><use xlink:href="#a"/></mask><path d="M-39.4 101.2S7.7 90.3 14.4 74.6c6.8-15.7-11.9 3.8-11.9 3.8l-43.8 14.1 1.9 8.7zm-41.1-1.1s-6.4 1.85-15.3-2.2c-9-4-19.8-5.8-19.8-5.8l-1.6-5.8 5.6-2.8 21.65 8.5 9.45 8.1z" fill="#9DEEEE" opacity=".4" mask="url(#b)"/></g><path fill="azure" d="M68.2 91.3h114v102.4h-114z"/><g transform="translate(75.97 90.8)"><mask id="d" fill="#fff"><use xlink:href="#c"/></mask><path d="M65.7 86.9s47.1-10.93 53.9-26.6c6.7-15.7-11.9 3.8-11.9 3.8L63.8 78.2l1.9 8.7zm-41.1-1.1s-6.4 1.8-15.3-2.2-19.7-5.8-19.7-5.8l-1.6-5.85 5.6-2.75 21.6 8.5 9.4 8.1z" fill="#9DEEEE" opacity=".4" mask="url(#d)"/></g><path d="M110.9 125.1c.2-3.2-.1-6.5-.8-9.6-.3-1.5-.9-2.9-1.9-4.2-.8-1.1-2.23-1.7-3.7-1.6-1.4 0-2.8.7-3.7 1.8-.9 1.2-1.6 2.7-1.9 4.2-.7 3.1-1.1 6.29-.8 9.5 0 .9-.7 1-.8 0-.1-1.6-.2-3.3-.2-4.9 0-1.7.2-3.32.6-5 .29-1.7 1-3.3 2-4.6.6-.8 1.3-1.4 2.1-1.75.9-.35 1.8-.65 2.7-.65 1.9-.1 3.7.7 4.8 2.2.6.8 1 1.5 1.3 2.4.3.7.6 1.6.7 2.4.3 1.6.5 3.3.5 4.9.1 1.7-.1 3.3-.2 5-.1 1.1-.7 1-.7-.1zm28.7.1c-.2-1.7-.3-3.3-.3-5 0-1.6.2-3.3.5-4.9.2-.8.4-1.7.8-2.4.3-.9.7-1.6 1.2-2.4 1.17-1.4 3-2.3 4.9-2.2.9 0 1.8.3 2.6.65.8.45 1.5.95 2.1 1.75 1 1.3 1.8 2.9 2.1 4.6.3 1.68.5 3.3.5 5 .1 1.6-.02 3.3-.2 4.9-.1 1-.8.9-.7 0 .2-3.21-.11-6.5-.8-9.5-.4-1.5-1-3-1.9-4.2-1-1.1-2.3-1.8-3.8-1.8-1.4-.1-2.8.5-3.7 1.6-.9 1.2-1.5 2.66-1.9 4.2-.6 3.1-.9 6.3-.8 9.6.1 1.1-.5 1.2-.6.1z" fill="#94B3CA"/><path d="M126.5 144.1c-4.1-.4-6.6 2.5-8 4.87 1.4 3.93 3.6 6.99 7.46 6.73 3.84-.2 6.14-3.2 7.74-7.1-1.4-2-3.6-4.2-7.2-4.5z" fill="#FF8AFF"/><g transform="translate(126.6 143.7)"><mask id="g" fill="#fff"><use xlink:href="#f"/></mask><path d="M-3.4-1.2s-4.4 8.1 5.7 12.4c10 4.3-2.4 6.8-3.8 6-1.4-.7-10.2-9.1-10.2-9.1l-1.29-5.4 9.59-3.9z" fill="#FF8AFF" opacity=".4" mask="url(#g)"/></g><path d="M116.5 131.6s-.6 10.2 1.9 17.37c1.4-2.37 3.9-5.27 8.1-4.87 3.6.3 5.8 2.5 7.1 4.5 2.9-7.1 2.9-17 2.9-17-11.5 7.9-20 0-20 0z" fill="#733335"/><path d="M103.3 147.8c9.67.18 6 24.6 5.8 32.5-.2 8 1.4 15 1.6 20.2.1 5.2 2.8 20.8-8.9 20.7-11.6-.2-4.5-30.5-4.4-36.8 0 0-3.8-36.9 5.9-36.6zm32.8 0c-9.7.18-6.1 24.6-5.8 32.5.2 8-1.5 15-1.6 20.2-.1 5.2-2.8 20.8 8.8 20.7 11.7-.2 4.5-30.5 4.4-36.8.08 0 3.9-36.9-5.8-36.6z" fill="#CDEEEE"/><g transform="translate(94.7 147.5)"><mask id="i" fill="#fff"><use xlink:href="#h"/></mask><path d="M15 28.5l-9.6 5.4S5.2 48 3.9 54.7c-1.3 6.7-.5 16.2 4.2 19.8 4.8 3.6-9.4 1.6-9.4 1.6s-10.1-8.5-9.8-11c.3-2.6-1.9-33.3-1.3-37.3.6-4 5.1-28.9 5.1-28.9l12-2.4L8.3-2C6.9 4.1 6.1 10.4 5.9 16.7c-.2 9.28 9.1 7.1 9.1 7.1v4.7zm35.3 0l-10.2 5.4s-.5 14.1-1.8 20.8c-1.31 6.7-.6 16.2 4.1 19.8 4.7 3.6-9.5 1.6-9.5 1.6s-10.2-8.5-9.8-11c.2-2.6-2-33.3-1.4-37.3.7-4 5.1-28.9 5.1-28.9l12-2.4L42.4-2c-1.1 6.1-1.7 12.4-1.9 18.7-.1 9.28 9.7 7.1 9.7 7.1l.1 4.7z" fill="#9DEEEE" opacity=".4" mask="url(#i)"/></g><path d="M186 138.5s.7-7.9 6.9-6.2c0 0 10.2 9.8 0 20.5-10.3 10.7-20.6 14-33.3 17-12.7 3.1-12.2 6.3-24.2 7.7-12 1.4-14.5-4.1-14.4-9 .1-4.8 4.5-10.9 15.3-10.7 10.9.3 9.6 4.3 20.65 2.5 11.01-1.8 22.45-7.5 26.25-10.4 3.8-2.91 7.2-6.9 2.8-11.4zm-118.1 2.1s-12.3 2.6-11.2 12.9c1.1 10.2 9.9 12.3 20.2 14.7 10.2 2.4 8.3 7.1 20.5 8.3 12.3 1.2 17.2-4.4 16-11.7-1.2-7.2-13.4-6.8-27.41-6.9-14.04-.1-18.09-6.5-18.09-6.5v-10.8z" fill="#DDF5F5"/><g transform="translate(56.2 131.6)"><mask id="k" fill="#fff"><use xlink:href="#j"/></mask><path d="M11.3 19.2s-4.5 6 2 9.3c6.4 3.3 14.2 4.8 17.3 7.6 3.1 2.87 18.39 6.1 28.5 0 10-6.1 3.1 14.1 3.1 14.1l-37.1-.8S2.4 38.2 2.4 37.5c0-.7-4.7-24-4.7-24s17.7-9.4 18.1-9.9c.4-.6 10.18-1.2 10.18-1.2L11.3 19.2zM64 33.7s.1 6.8 11.9 6.4c11.8-.5 16.8-3.9 16.8-3.9s8.2 1.2 26-6 23.8-15 23.8-15l-3.6 13.4-43.5 19.35H73.3s-4.8-1.55-6.2-1.85c-1.5-.3-4.8-3.8-4.8-3.8l1.7-8.6z" fill="#C2F5F5" opacity=".4" mask="url(#k)"/></g><path d="M70.1 40.8h1.7v39.6h-1.7V40.8zm13.8 13.8h1.7v13.7h-1.7V54.6zM194 34.7h1.7v30.9H194V34.7zm-14.3 21.5h1.6v16h-1.6v-16z" fill="#249E7C"/></svg>