<svg xmlns="http://www.w3.org/2000/svg" viewBox="0 0 777.001 407.998"><path d="M775.35 297.398c-4.07 25.87-16.68 50.98-37.49 66.87-20.48 15.65-46.72 21.21-72.05 25.99q-45.57 8.61-91.39 15.74-6.495 1.035-13 2H383.5c-.18-.24-.37-.49-.55-.74-.29-.42-.58-.84-.86-1.26-.16-.24-.32-.49-.48-.74h111.6a11.96 11.96 0 0011.95-11.94v-148.96c.72-2.26 1.39-4.53 2-6.83a180.052 180.052 0 005.53-32.71c.6-7.7.78-15.4.65-23.11-.37-21.19-3.14-42.38-6.15-63.42-.22-1.55-.45-3.11-.67-4.66-2.12-14.62-4.05-30.53 3.32-43.34 8.43-14.66 27.14-20.77 43.99-19.27 30.31 2.71 55.84 25.92 69.11 53.31 13.26 27.38 16.23 58.52 17.44 88.92.64 16.12.57 32.96-1.68 49.13q11.4-26.07 22.82-52.14c4.06-9.27 8.33-18.84 15.85-25.62 15.72-14.19 41.72-11.33 58.51 1.59 16.78 12.93 25.98 33.36 32.1 53.63 7.58 25.07 11.45 51.69 7.37 77.56z" fill="#f2f2f2"/><path d="M708.298 156.886c10.992 19.468 16.036 41.792 15.915 64.07a155.087 155.087 0 01-14.331 63.93 160.607 160.607 0 01-34.467 48.298 146.332 146.332 0 01-49.532 31.64 129.437 129.437 0 01-67.21 6.387q-4.704-.809-9.339-1.96c-1.874-.462-2.674 2.43-.798 2.893a132.777 132.777 0 0071.242-2.05 146.773 146.773 0 0052.183-29.686 162.908 162.908 0 0037.426-47.712 159.495 159.495 0 0017.575-63.863c1.31-22.612-2.48-45.626-12.259-66.138q-1.777-3.728-3.814-7.323a1.501 1.501 0 00-2.59 1.514z" fill="#fff"/><path d="M549.089 50.622a325.344 325.344 0 0128.297 70.982 342.834 342.834 0 015.833 151.56 324.114 324.114 0 01-22.79 72.985c-10.418 23.147-25.419 47.536-51.041 55.64a53.433 53.433 0 01-8.86 1.981c-1.904.261-1.094 3.152.798 2.893 26.504-3.638 44.921-25.658 56.472-48.104 11.95-23.225 20.46-48.445 26.12-73.909a345.526 345.526 0 00-1.18-154.121 330.416 330.416 0 00-26.53-72.797q-2.198-4.347-4.529-8.624c-.923-1.697-3.514-.184-2.59 1.514z" fill="#fff"/><path d="M423.64 46.258h-179.6a13.768 13.768 0 00-13.75 13.75v89.99h27.64a11.879 11.879 0 0110.11 5.59l9.58 15.25 9.16 14.57 1.72 2.74 10.48 16.67.12.19h138.29v-145a13.768 13.768 0 00-13.75-13.75z" fill="#ccc"/><path d="M352.45 73.768h-88.99a8.895 8.895 0 100 17.79h88.99a8.895 8.895 0 100-17.79zM401.8 117.448H264.27a9.71 9.71 0 000 19.42H401.8a9.71 9.71 0 000-19.42zM410.58 157.018a9.704 9.704 0 00-8.78-5.59H264.27c-.21 0-.41.01-.62.02a11.914 11.914 0 014.39 4.14l9.58 15.25H401.8a9.697 9.697 0 008.78-13.82zM411.41 193.808a9.71 9.71 0 00-9.61-8.4H286.78l1.72 2.74 10.48 16.67H401.8a9.6 9.6 0 005.63-1.81 9.697 9.697 0 004.07-7.9 9.245 9.245 0 00-.09-1.3z" fill="#fff"/><path d="M521.19 123.758l-14-5.47-69.8-27.24-83.51-32.59a13.775 13.775 0 00-17.81 7.82l-2.92 7.49-6.95 17.79-10.1 25.89-7.58 19.42-5.68 14.56-7.58 19.41-5.69 14.57-.16.42-.91 2.32 10.48 16.67.12.19h194.11a11.916 11.916 0 019.29 4.44l.82-2.08 10.02-25.66 15.66-40.13a13.777 13.777 0 00-7.81-17.82z" fill="#adebad"/><path d="M444.87 123.498l-7.48-2.92-75.42-29.43a8.93 8.93 0 00-11.53 5.05 8.924 8.924 0 005.06 11.53l24.91 9.72 30.81 12.02 26.17 10.22 1.01.39a8.899 8.899 0 006.47-16.58zM474.95 182.138l-37.56-14.66-26.81-10.46-14.32-5.59-37.3-14.56-12.12-4.73a9.71 9.71 0 00-12.23 4.73c-.12.25-.24.51-.34.78a9.704 9.704 0 005.51 12.57l3.1 1.21 49.72 19.41 44.79 17.48 30.5 11.91a9.629 9.629 0 003.52.66 9.706 9.706 0 003.54-18.75zM437.39 203.948l-2.41-.94-23.57-9.2-21.53-8.4-37.34-14.57-18.06-7.05a9.708 9.708 0 10-7.05 18.09l9.04 3.53 45.1 17.6 4.64 1.81.48.19h53.41zM346.16 204.818l-4.64-1.81-19.39-7.57a9.695 9.695 0 00-13.12 7.57 9.2 9.2 0 00-.11 1.81 1.12 1.12 0 00.01.19h37.74z" fill="#fff"/><path d="M386.21 204.818l-4.64-1.81h-72.56a9.2 9.2 0 00-.11 1.81h-9.92l.12.19h87.59zm0 0h-87.23l.12.19h87.59zm0 0h-87.23l.12.19h87.59zm.48.19l-.48-.19h-87.23l.12.19zm-175.01 200.25a11.958 11.958 0 01-11.94-11.94v-231.37a11.96 11.96 0 0111.94-11.95h18.61v-2h-18.61a13.966 13.966 0 00-13.94 13.95v231.37a13.95 13.95 0 008.17 12.68h176.18c-.16-.24-.32-.49-.48-.74zm291.64-197.89a13.878 13.878 0 00-10.11-4.36h-193l-10.8-17.18-.26-.42-9.16-14.57-10.26-16.32a13.976 13.976 0 00-11.8-6.52h-46.25a13.966 13.966 0 00-13.94 13.95v231.37a13.95 13.95 0 008.17 12.68 13.75 13.75 0 005.77 1.26h281.53a13.798 13.798 0 005.78-1.26 13.951 13.951 0 008.17-12.68v-176.36a13.87 13.87 0 00-3.84-9.59zm1.84 185.95a11.96 11.96 0 01-11.95 11.94H211.68a11.958 11.958 0 01-11.94-11.94v-231.37a11.96 11.96 0 0111.94-11.95h46.25a11.879 11.879 0 0110.11 5.59l9.58 15.25 9.16 14.57 1.72 2.74 10.48 16.67.12.19h194.11a11.96 11.96 0 0111.95 11.95zm-118.95-188.5h-87.23l.12.19h87.59zm0 0h-87.23l.12.19h87.59zm0 0h-87.23l.12.19h87.59zm0 0l-4.64-1.81h-81.36l-10.8-17.18-.91 2.32 10.48 16.67.12.19h87.59z" fill="#3f3d56"/><path fill="#ffb8b8" d="M156.928 287.77l-5.728 11.976-48.917-16.394 8.453-17.675 46.192 22.093z"/><path d="M143.155 307.775l11.579-24.207 14.541 6.955-18.001 37.637-1.112-.532a14.887 14.887 0 01-7.007-19.853z" fill="#2f2e41"/><path fill="#ffb8b8" d="M168.459 394.715l-13.267-.448-.559-51.644 15.553.918-1.727 51.174z"/><path d="M144.611 390.115l26.819.905-.544 16.11-41.697-1.407.042-1.232a14.887 14.887 0 0115.38-14.376zM189.824 178.579s-40.605-10.287-59.012 4.872l-10.287 29.777L79.38 271.7l59.554 35.732 10.828-27.07-25.987-12.994 31.4-27.07-5.413 142.93 20.573 3.248s45.478-176.496 19.49-207.897z" fill="#2f2e41"/><path d="M128.22 187.855l.496-.88c5.217-9.274 4.371-24.377 2.744-35.413-1.363-9.244-1.323-25.535-1.048-37.574a17.891 17.891 0 0114.261-17.22c12.353-2.571 27.518-3.116 35.458-3.212l.006.541-.006-.541a8.245 8.245 0 018.275 8.042c.242 12.964.167 36.605-3.05 49.289-4.775 18.825 2.691 31.618 2.767 31.745l.45.753z" fill="#adebad"/><path d="M107.334 239.773a10.025 10.025 0 003.81-14.892l22.916-98.818h-17.325l-20.224 96.87a10.08 10.08 0 0010.823 16.84zM246.671 142.502l-38.242-36.176-10.336 14.47 25.84 22.74-33.888 26.91c-.244-.017-.488-.037-.737-.037a10.853 10.853 0 1010.745 12.296l.107.107z" fill="#ffb8b8"/><path d="M142.24 98.037s-23.88-3.917-26.046 14.491-3.248 18.408-3.248 18.408 17.324-3.249 21.656 1.082 7.639-33.98 7.639-33.98zM177.914 95.203s19.49-3.248 28.152 5.414 12.994 10.828 12.994 10.828-19.49 10.828-11.91 20.573c0 0-20.574-9.745-23.822-6.496s-5.414-30.319-5.414-30.319z" fill="#adebad"/><path d="M160.819 32.338c-6.148-4.91-7.764-14.386-4.197-21.399S168.254-.299 176.116.017s15.27 4.829 19.824 11.244c6.398 9.013 7.74 21.539 16.248 28.594 7.684 6.373 18.691 6.19 28.661 5.684 3.361-.171 6.83-.37 9.846-1.863s5.48-4.642 5.09-7.984c2.505 3.964 1.052 9.524-2.308 12.795s-8.145 4.642-12.803 5.188a47.569 47.569 0 01-43.151-18.933c-3.47-4.786-6.146-10.358-10.906-13.862s-12.697-3.747-15.62 1.39c-1.444 2.541-1.303 5.728-2.632 8.332s-5.645 4.008-6.924 1.38" fill="#2f2e41"/><circle cx="159.879" cy="54.556" r="30" fill="#2f2e41"/><circle cx="159.698" cy="62.343" r="24.561" fill="#ffb8b8"/><path d="M137.303 44.304c3.338.73 2.245 6.33 4.883 8.502 2.38 1.96 5.806-.056 8.8-.785 3.782-.92 7.739.428 11.23 2.148s6.856 3.854 10.664 4.655 8.322-.101 10.457-3.355c2.041-3.11 1.29-7.306-.307-10.667a24.77 24.77 0 00-44.442-.616" fill="#2f2e41"/><path d="M716 406.998a1.003 1.003 0 01-1 1H1a1 1 0 010-2h714a1.003 1.003 0 011 1z" fill="#3f3d56"/></svg>